<svg viewBox="0 0 330 200" xmlns="http://www.w3.org/2000/svg"><g><g><g><g><g><line x1="41.171875" y1="178" x2="36.171875" y2="178" style="visibility: inherit;" fill="rgb(0, 0, 0)" stroke="rgb(204, 204, 204)" stroke-width="1px"></line><line x1="41.171875" y1="161.8181818181818" x2="36.171875" y2="161.8181818181818" style="visibility: inherit;" fill="rgb(0, 0, 0)" stroke="rgb(204, 204, 204)" stroke-width="1px"></line><line x1="41.171875" y1="145.63636363636363" x2="36.171875" y2="145.63636363636363" style="visibility: inherit;" fill="rgb(0, 0, 0)" stroke="rgb(204, 204, 204)" stroke-width="1px"></line><line x1="41.171875" y1="129.45454545454547" x2="36.171875" y2="129.45454545454547" style="visibility: inherit;" fill="rgb(0, 0, 0)" stroke="rgb(204, 204, 204)" stroke-width="1px"></line><line x1="41.171875" y1="113.27272727272727" x2="36.171875" y2="113.27272727272727" style="visibility: inherit;" fill="rgb(0, 0, 0)" stroke="rgb(204, 204, 204)" stroke-width="1px"></line><line x1="41.171875" y1="97.09090909090908" x2="36.171875" y2="97.09090909090908" style="visibility: inherit;" fill="rgb(0, 0, 0)" stroke="rgb(204, 204, 204)" stroke-width="1px"></line><line x1="41.171875" y1="80.90909090909092" x2="36.171875" y2="80.90909090909092" style="visibility: inherit;" fill="rgb(0, 0, 0)" stroke="rgb(204, 204, 204)" stroke-width="1px"></line><line x1="41.171875" y1="64.72727272727273" x2="36.171875" y2="64.72727272727273" style="visibility: inherit;" fill="rgb(0, 0, 0)" stroke="rgb(204, 204, 204)" stroke-width="1px"></line><line x1="41.171875" y1="48.54545454545454" x2="36.171875" y2="48.54545454545454" style="visibility: inherit;" fill="rgb(0, 0, 0)" stroke="rgb(204, 204, 204)" stroke-width="1px"></line><line x1="41.171875" y1="32.36363636363635" x2="36.171875" y2="32.36363636363635" style="visibility: inherit;" fill="rgb(0, 0, 0)" stroke="rgb(204, 204, 204)" stroke-width="1px"></line><line x1="41.171875" y1="16.181818181818187" x2="36.171875" y2="16.181818181818187" style="visibility: inherit;" fill="rgb(0, 0, 0)" stroke="rgb(204, 204, 204)" stroke-width="1px"></line><line x1="41.171875" y1="0" x2="36.171875" y2="0" style="visibility: inherit;" fill="rgb(0, 0, 0)" stroke="rgb(204, 204, 204)" stroke-width="1px"></line></g><g transform="translate(31.171875, 0)"><text x="0" y="178" dx="0em" dy="0.3em" style="text-anchor: end; visibility: hidden; font-family: Roboto, sans-serif; font-size: 12px; font-weight: 200;" fill="rgb(50, 49, 63)" stroke="none" stroke-width="1px">70</text><text x="0" y="161.8181818181818" dx="0em" dy="0.3em" style="text-anchor: end; visibility: inherit; font-family: Roboto, sans-serif; font-size: 12px; font-weight: 200;" fill="rgb(50, 49, 63)" stroke="none" stroke-width="1px">75</text><text x="0" y="145.63636363636363" dx="0em" dy="0.3em" style="text-anchor: end; visibility: hidden; font-family: Roboto, sans-serif; font-size: 12px; font-weight: 200;" fill="rgb(50, 49, 63)" stroke="none" stroke-width="1px">80</text><text x="0" y="129.45454545454547" dx="0em" dy="0.3em" style="text-anchor: end; visibility: inherit; font-family: Roboto, sans-serif; font-size: 12px; font-weight: 200;" fill="rgb(50, 49, 63)" stroke="none" stroke-width="1px">85</text><text x="0" y="113.27272727272727" dx="0em" dy="0.3em" style="text-anchor: end; visibility: hidden; font-family: Roboto, sans-serif; font-size: 12px; font-weight: 200;" fill="rgb(50, 49, 63)" stroke="none" stroke-width="1px">90</text><text x="0" y="97.09090909090908" dx="0em" dy="0.3em" style="text-anchor: end; visibility: inherit; font-family: Roboto, sans-serif; font-size: 12px; font-weight: 200;" fill="rgb(50, 49, 63)" stroke="none" stroke-width="1px">95</text><text x="0" y="80.90909090909092" dx="0em" dy="0.3em" style="text-anchor: end; visibility: hidden; font-family: Roboto, sans-serif; font-size: 12px; font-weight: 200;" fill="rgb(50, 49, 63)" stroke="none" stroke-width="1px">100</text><text x="0" y="64.72727272727273" dx="0em" dy="0.3em" style="text-anchor: end; visibility: inherit; font-family: Roboto, sans-serif; font-size: 12px; font-weight: 200;" fill="rgb(50, 49, 63)" stroke="none" stroke-width="1px">105</text><text x="0" y="48.54545454545454" dx="0em" dy="0.3em" style="text-anchor: end; visibility: hidden; font-family: Roboto, sans-serif; font-size: 12px; font-weight: 200;" fill="rgb(50, 49, 63)" stroke="none" stroke-width="1px">110</text><text x="0" y="32.36363636363635" dx="0em" dy="0.3em" style="text-anchor: end; visibility: inherit; font-family: Roboto, sans-serif; font-size: 12px; font-weight: 200;" fill="rgb(50, 49, 63)" stroke="none" stroke-width="1px">115</text><text x="0" y="16.181818181818187" dx="0em" dy="0.3em" style="text-anchor: end; visibility: hidden; font-family: Roboto, sans-serif; font-size: 12px; font-weight: 200;" fill="rgb(50, 49, 63)" stroke="none" stroke-width="1px">120</text><text x="0" y="0" dx="0em" dy="0.3em" style="text-anchor: end; visibility: hidden; font-family: Roboto, sans-serif; font-size: 12px; font-weight: 200;" fill="rgb(50, 49, 63)" stroke="none" stroke-width="1px">125</text></g><line x1="41.171875" y1="0" x2="41.171875" y2="178" fill="rgb(0, 0, 0)" stroke="rgb(204, 204, 204)" stroke-width="1px"></line></g></g><g transform="translate(41, 0)" clip-path="url(#clip_0)"><clipPath id="clip_0"><rect width="288" height="178"></rect></clipPath><g><g><g><line x1="0" y1="0" x2="0" y2="178" fill="rgb(0, 0, 0)" stroke="rgb(60, 60, 60)" stroke-width="1px" opacity="0.25"></line><line x1="24.069010416666664" y1="0" x2="24.069010416666664" y2="178" fill="rgb(0, 0, 0)" stroke="rgb(60, 60, 60)" stroke-width="1px" opacity="0.25"></line><line x1="48.13802083333333" y1="0" x2="48.13802083333333" y2="178" fill="rgb(0, 0, 0)" stroke="rgb(60, 60, 60)" stroke-width="1px" opacity="0.25"></line><line x1="72.20703125" y1="0" x2="72.20703125" y2="178" fill="rgb(0, 0, 0)" stroke="rgb(60, 60, 60)" stroke-width="1px" opacity="0.25"></line><line x1="96.27604166666666" y1="0" x2="96.27604166666666" y2="178" fill="rgb(0, 0, 0)" stroke="rgb(60, 60, 60)" stroke-width="1px" opacity="0.25"></line><line x1="120.34505208333334" y1="0" x2="120.34505208333334" y2="178" fill="rgb(0, 0, 0)" stroke="rgb(60, 60, 60)" stroke-width="1px" opacity="0.25"></line><line x1="144.4140625" y1="0" x2="144.4140625" y2="178" fill="rgb(0, 0, 0)" stroke="rgb(60, 60, 60)" stroke-width="1px" opacity="0.25"></line><line x1="168.48307291666669" y1="0" x2="168.48307291666669" y2="178" fill="rgb(0, 0, 0)" stroke="rgb(60, 60, 60)" stroke-width="1px" opacity="0.25"></line><line x1="192.55208333333331" y1="0" x2="192.55208333333331" y2="178" fill="rgb(0, 0, 0)" stroke="rgb(60, 60, 60)" stroke-width="1px" opacity="0.25"></line><line x1="216.62109375" y1="0" x2="216.62109375" y2="178" fill="rgb(0, 0, 0)" stroke="rgb(60, 60, 60)" stroke-width="1px" opacity="0.25"></line><line x1="240.69010416666669" y1="0" x2="240.69010416666669" y2="178" fill="rgb(0, 0, 0)" stroke="rgb(60, 60, 60)" stroke-width="1px" opacity="0.25"></line><line x1="264.7591145833333" y1="0" x2="264.7591145833333" y2="178" fill="rgb(0, 0, 0)" stroke="rgb(60, 60, 60)" stroke-width="1px" opacity="0.25"></line><line x1="288.828125" y1="0" x2="288.828125" y2="178" fill="rgb(0, 0, 0)" stroke="rgb(60, 60, 60)" stroke-width="1px" opacity="0.25"></line></g><g><line x1="0" y1="178" x2="288.828125" y2="178" fill="rgb(0, 0, 0)" stroke="rgb(60, 60, 60)" stroke-width="1px" opacity="0.25"></line><line x1="0" y1="161.8181818181818" x2="288.828125" y2="161.8181818181818" fill="rgb(0, 0, 0)" stroke="rgb(60, 60, 60)" stroke-width="1px" opacity="0.25"></line><line x1="0" y1="145.63636363636363" x2="288.828125" y2="145.63636363636363" fill="rgb(0, 0, 0)" stroke="rgb(60, 60, 60)" stroke-width="1px" opacity="0.25"></line><line x1="0" y1="129.45454545454547" x2="288.828125" y2="129.45454545454547" fill="rgb(0, 0, 0)" stroke="rgb(60, 60, 60)" stroke-width="1px" opacity="0.25"></line><line x1="0" y1="113.27272727272727" x2="288.828125" y2="113.27272727272727" fill="rgb(0, 0, 0)" stroke="rgb(60, 60, 60)" stroke-width="1px" opacity="0.25"></line><line x1="0" y1="97.09090909090908" x2="288.828125" y2="97.09090909090908" fill="rgb(0, 0, 0)" stroke="rgb(60, 60, 60)" stroke-width="1px" opacity="0.25"></line><line x1="0" y1="80.90909090909092" x2="288.828125" y2="80.90909090909092" fill="rgb(0, 0, 0)" stroke="rgb(60, 60, 60)" stroke-width="1px" opacity="0.25"></line><line x1="0" y1="64.72727272727273" x2="288.828125" y2="64.72727272727273" fill="rgb(0, 0, 0)" stroke="rgb(60, 60, 60)" stroke-width="1px" opacity="0.25"></line><line x1="0" y1="48.54545454545454" x2="288.828125" y2="48.54545454545454" fill="rgb(0, 0, 0)" stroke="rgb(60, 60, 60)" stroke-width="1px" opacity="0.25"></line><line x1="0" y1="32.36363636363635" x2="288.828125" y2="32.36363636363635" fill="rgb(0, 0, 0)" stroke="rgb(60, 60, 60)" stroke-width="1px" opacity="0.25"></line><line x1="0" y1="16.181818181818187" x2="288.828125" y2="16.181818181818187" fill="rgb(0, 0, 0)" stroke="rgb(60, 60, 60)" stroke-width="1px" opacity="0.25"></line><line x1="0" y1="0" x2="288.828125" y2="0" fill="rgb(0, 0, 0)" stroke="rgb(60, 60, 60)" stroke-width="1px" opacity="0.25"></line></g></g></g><g><g><line x1="0" y1="404.5454545454545" x2="288.828125" y2="404.5454545454545" fill="rgb(0, 0, 0)" stroke="rgb(153, 153, 153)" stroke-width="1.5px"></line></g></g><g><g><line x1="24.069010416666664" y1="0" x2="24.069010416666664" y2="178" fill="rgb(0, 0, 0)" stroke="rgb(153, 153, 153)" stroke-width="1.5px"></line></g></g><g><g><g><g><g><path stroke="rgb(238, 51, 119)" stroke-width="2px" d="M33.57626953125,-796.0649602716619L35.9591015625,31.133728304776277L38.34193359375,42.54710027521307L40.724765624999996,51.66574346368962L43.10759765625,53.95355862704191L45.4904296875,55.853124722567465L47.87326171875,55.47724609375L50.25609375,64.01608359596945L52.63892578125,59.8565049604936L55.0217578125,60.012110762162635L57.40458984375,61.77676252885298L59.787421875,65.66794461337004L62.17025390625,68.25835404829544L64.5530859375,62.52602594549006L66.93591796875,66.13858920010652L69.31875,69.80041198730468L71.70158203125,75.16204667524858L74.0844140625,71.45916193181819L76.46724609374999,69.55097850452769L78.85007812500001,71.18530856045808L81.23291015625,69.29374250932173L83.61574218749999,66.6737032803622L85.99857421875001,77.65638150301848L88.38140625,72.78998413085938L90.76423828124999,74.28243685635654L93.1470703125,77.9277657248757L95.52990234375,73.01573846990412L97.91273437500001,73.0867265181108L100.29556640625,81.94003490101207L102.6783984375,78.65631297718394L105.06123046875001,83.96653997247869L107.4440625,81.61242814497514L109.82689453124999,80.80230019309305L112.20972656250001,80.79511496803977L114.59255859375,81.10370927290482L116.975390625,82.50791459517045L119.35822265625,86.27909601384944L121.7410546875,86.64694990678268L124.12388671875,83.3464130748402L126.50671875,83.4707100608132L128.88955078125,86.28867631392045L131.2723828125,89.00792596990412L133.65521484375,88.54698514071377L136.038046875,93.13187477805398L138.42087890625,91.04092490456323L140.8037109375,90.48262551047586L143.18654296875002,94.91704517711293L145.569375,97.86622203480113L147.95220703125,101.44488386674361L150.3350390625,100.52826149680399L152.71787109375,103.200029407848L155.100703125,100.01746853915127L157.48353515625,99.12506852583454L159.8663671875,104.16630637428979L162.24919921875,103.38161066228693L164.63203124999998,108.38299643776635L167.01486328125,103.90652715509587L169.39769531250002,101.81742914373224L171.78052734375,109.86132562810725L174.163359375,108.10682206587357L176.54619140625,112.42168551358309L178.9290234375,116.04449573863636L181.31185546875,118.31196511008521L183.69468750000001,117.38963900479402L186.07751953125,119.44807017933238L188.4603515625,114.05337357954545L190.84318359374998,117.95438287908381L193.226015625,115.5376534201882L195.60884765625,123.65204412286933L197.9916796875,126.84917297363282L200.37451171875,124.93666853471234L202.75734375,124.6184198552912L205.14017578125,131.08722118030894L207.5230078125,130.1330430464311L209.90583984375002,135.6736416903409L212.288671875,131.44171697443184L214.67150390625,136.43451010964134L217.05433593749999,138.4135828191584L219.43716796875,137.04439003684303L221.82,141.0376961447976L224.20283203125,139.27269869717685L226.5856640625,138.19187788529828L228.96849609375,145.8864884810014L231.351328125,142.42192604758523L233.73416015625,141.74695933948863L236.1169921875,144.77559342817827L238.49982421875,142.34456759366122L240.88265625,146.61664068048648L243.26548828125001,146.77503662109373L245.6483203125,139.76761502352628L248.03115234375,141.34098177823154L250.41398437499998,142.7246437766335L252.79681640625,144.37309736772016L255.1796484375,147.78373357599432L257.56248046875004,148.72919561212714L259.9453125,149.61399064497516L262.32814453125,154.90392123135652" style="fill: none;" fill="none"></path></g><g><path stroke="rgb(51, 187, 238)" stroke-width="2px" d="M33.57626953125,-801.8761530095882L35.9591015625,36.06027415882457L38.34193359375,53.513087047230115L40.724765624999996,50.85798589533026L43.10759765625,48.169649991122164L45.4904296875,63.55279707475142L47.87326171875,56.70384549227628L50.25609375,56.313571721857244L52.63892578125,55.580431851473726L55.0217578125,69.82379483309658L57.40458984375,62.28377768776634L59.787421875,66.39355357776988L62.17025390625,68.66015874689275L64.5530859375,72.95302207253195L66.93591796875,67.37955904873935L69.31875,68.06116776899857L71.70158203125,70.06569740988992L74.0844140625,67.83674677068537L76.46724609374999,76.56951127485794L78.85007812500001,74.98725558194248L81.23291015625,68.55512112704191L83.61574218749999,68.75596174760298L85.99857421875001,75.86456909179688L88.38140625,75.7988897150213L90.76423828124999,76.11736061789773L93.1470703125,71.71610162908381L95.52990234375,81.34047601873225L97.91273437500001,72.0697579123757L100.29556640625,80.48348360928621L102.6783984375,79.21273581764915L105.06123046875001,80.33728526722301L107.4440625,83.76172402121804L109.82689453124999,76.92250088778408L112.20972656250001,82.46213656338777L114.59255859375,84.65721047141336L116.975390625,87.87631475275212L119.35822265625,84.94471823952414L121.7410546875,91.8267070423473L124.12388671875,80.5295332475142L126.50671875,88.28532936789773L128.88955078125,86.49680092551492L131.2723828125,83.7983661998402L133.65521484375,87.35426247336649L136.038046875,93.60770457874645L138.42087890625,91.77549688165838L140.8037109375,86.87045731977983L143.18654296875002,95.33188698508523L145.569375,95.07124356356533L147.95220703125,95.9581620649858L150.3350390625,98.33037275834518L152.71787109375,94.19491771351207L155.100703125,99.7106767134233L157.48353515625,100.26744523481888L159.8663671875,103.16049832430754L162.24919921875,105.63149968927557L164.63203124999998,102.3884940407493L167.01486328125,103.32963506525213L169.39769531250002,109.70974454012783L171.78052734375,110.13991976651279L174.163359375,107.2568173495206L176.54619140625,114.98750221946021L178.9290234375,109.13114873712713L181.31185546875,112.39264831542968L183.69468750000001,112.50941439541904L186.07751953125,118.76680714000355L188.4603515625,119.50671248002486L190.84318359374998,116.33600352894176L193.226015625,118.57976906516336L195.60884765625,123.49806795987215L197.9916796875,116.23676841042257L200.37451171875,127.10364352139558L202.75734375,124.7436551180753L205.14017578125,124.36459128639913L207.5230078125,135.74601246226916L209.90583984375002,132.07414023659445L212.288671875,133.10071383389558L214.67150390625,129.19563043767758L217.05433593749999,136.29401550292968L219.43716796875,129.34400163130329L221.82,137.65402304909446L224.20283203125,137.45002191716975L226.5856640625,138.1433097145774L228.96849609375,136.27369440252133L231.351328125,139.21106872558593L233.73416015625,143.6071425004439L236.1169921875,141.56330399946734L238.49982421875,146.3709356134588L240.88265625,140.7307314786044L243.26548828125001,144.39865306507457L245.6483203125,147.98121615323154L248.03115234375,147.0228651566939L250.41398437499998,145.78559903231533L252.79681640625,143.22916509454902L255.1796484375,149.9831531871449L257.56248046875004,148.85008517178622L259.9453125,145.9459209095348L262.32814453125,146.88723477450284" style="fill: none;" fill="none"></path></g><g><path stroke="rgb(204, 51, 17)" stroke-width="2px" d="M33.57626953125,-803.5160633433949L35.9591015625,40.34629794034091L38.34193359375,37.92119806463069L40.724765624999996,44.063849431818184L43.10759765625,37.96922302246094L45.4904296875,46.05936667702415L47.87326171875,46.64339460893112L50.25609375,50.65405883789063L52.63892578125,53.81333562677557L55.0217578125,53.81521218039774L57.40458984375,64.04954057173295L59.787421875,51.656286621093756L62.17025390625,55.504382046786226L64.5530859375,57.09977361505682L66.93591796875,68.39692271839489L69.31875,61.33066128817472L71.70158203125,65.17495422363281L74.0844140625,67.48010281649502L76.46724609374999,58.80686950683594L78.85007812500001,72.50376032049006L81.23291015625,67.11432300914417L83.61574218749999,75.06599675958806L85.99857421875001,76.62232638272373L88.38140625,68.80902377041905L90.76423828124999,71.99536243785512L93.1470703125,72.0315107865767L95.52990234375,75.3224179354581L97.91273437500001,79.12972301136364L100.29556640625,73.89300259676845L102.6783984375,77.50519547895951L105.06123046875001,78.27206393155186L107.4440625,84.12473838112571L109.82689453124999,81.35934032093395L112.20972656250001,85.35573286576705L114.59255859375,84.80195201526989L116.975390625,87.0163593639027L119.35822265625,76.53659751198508L121.7410546875,87.11433521617543L124.12388671875,86.59672740589488L126.50671875,89.36528597745027L128.88955078125,85.31476967551492L131.2723828125,85.34644886363637L133.65521484375,88.91012295809658L136.038046875,87.79740073464133L138.42087890625,86.55586298162287L140.8037109375,92.09043690074574L143.18654296875002,90.97966530539773L145.569375,91.10420920632102L147.95220703125,89.17449479536576L150.3350390625,95.72966696999289L152.71787109375,98.5815840287642L155.100703125,105.44589372114702L157.48353515625,97.21515669389203L159.8663671875,99.12953768643465L162.24919921875,102.23609813343396L164.63203124999998,101.28214222301136L167.01486328125,100.5654715798118L169.39769531250002,93.26387551047586L171.78052734375,104.23660306063564L174.163359375,107.08103859641334L176.54619140625,103.96912009499289L178.9290234375,112.49699457341974L181.31185546875,107.61049832430754L183.69468750000001,102.72827370383524L186.07751953125,105.05999034534801L188.4603515625,111.43545781915837L190.84318359374998,112.59146423339844L193.226015625,115.10787325772371L195.60884765625,115.92568026455965L197.9916796875,118.19100147594105L200.37451171875,121.96230635209518L202.75734375,120.92602899724787L205.14017578125,120.94064636230469L207.5230078125,127.29416309703481L209.90583984375002,118.97759843306108L212.288671875,125.91684681285511L214.67150390625,128.10076016512784L217.05433593749999,127.07216186523438L219.43716796875,133.41975264115766L221.82,129.04076538085937L224.20283203125,132.21969659978691L226.5856640625,134.27746110395952L228.96849609375,138.49970675381746L231.351328125,134.11736145019532L233.73416015625,138.21192737926137L236.1169921875,137.17819324840198L238.49982421875,136.80162325772372L240.88265625,134.86699523925782L243.26548828125001,136.68125221946022L245.6483203125,139.43786010742187L248.03115234375,140.77006503018467L250.41398437499998,135.6071474942294L252.79681640625,135.94892716841264L255.1796484375,137.34589788263494L257.56248046875004,133.51674083362926L259.9453125,139.17961176091973L262.32814453125,139.39519320401277" style="fill: none;" fill="none"></path></g><g><path stroke="rgb(0, 119, 187)" stroke-width="2px" d="M33.57626953125,-786.4261907404119L35.9591015625,33.69663141424006L38.34193359375,52.594168368252845L40.724765624999996,43.14799249822444L43.10759765625,63.934058449485086L45.4904296875,53.97676863236862L47.87326171875,55.510900601473715L50.25609375,59.586207164417615L52.63892578125,59.252748524058944L55.0217578125,63.17237521084872L57.40458984375,65.23280639648438L59.787421875,62.531334616921164L62.17025390625,70.6565155029297L64.5530859375,66.45004771839488L66.93591796875,66.6558760209517L69.31875,72.3448458584872L71.70158203125,64.91697748357599L74.0844140625,68.7500604802912L76.46724609374999,70.80960277210582L78.85007812500001,74.72735290527343L81.23291015625,75.47298667214133L83.61574218749999,71.3443711714311L85.99857421875001,73.72969304865056L88.38140625,79.75987465598367L90.76423828124999,80.21832164417613L93.1470703125,77.47435580166902L95.52990234375,76.67978349165483L97.91273437500001,78.96905545321377L100.29556640625,82.40759305087002L102.6783984375,82.59438421075994L105.06123046875001,83.00764576305043L107.4440625,85.39230096990413L109.82689453124999,87.63070845170455L112.20972656250001,92.36680880459873L114.59255859375,86.3722323330966L116.975390625,87.37058355158025L119.35822265625,88.0282168301669L121.7410546875,93.51498801491476L124.12388671875,87.54285611239348L126.50671875,88.22085987437855L128.88955078125,91.77831171209162L131.2723828125,98.92440074573864L133.65521484375,95.55899935635652L136.038046875,97.83469099564986L138.42087890625,103.54850047718395L140.8037109375,95.57546858354048L143.18654296875002,101.25670998313211L145.569375,96.24616366299715L147.95220703125,101.62110706676137L150.3350390625,104.70739579634233L152.71787109375,107.37699085582386L155.100703125,102.40560524680399L157.48353515625,102.5074823552912L159.8663671875,114.77878501198508L162.24919921875,111.29111133922231L164.63203124999998,112.45561162775213L167.01486328125,113.67337147105823L169.39769531250002,113.78144614479757L171.78052734375,117.8517403342507L174.163359375,117.62571438876064L176.54619140625,122.2219621138139L178.9290234375,122.40082730379973L181.31185546875,119.20937749689276L183.69468750000001,121.68381097966974L186.07751953125,125.24965792569246L188.4603515625,128.01157448508522L190.84318359374998,125.39151056463068L193.226015625,129.77437438964844L195.60884765625,131.33588922674008L197.9916796875,129.6057314786044L200.37451171875,136.17549632679334L202.75734375,132.33189475319602L205.14017578125,134.58198131214488L207.5230078125,134.41309148615056L209.90583984375002,143.31978288130327L212.288671875,145.2756455854936L214.67150390625,142.49708695845172L217.05433593749999,142.0552079634233L219.43716796875,147.5108925559304L221.82,143.76383472789416L224.20283203125,152.85566295276988L226.5856640625,151.33839527476917L228.96849609375,147.65896745161578L231.351328125,150.0746845592152L233.73416015625,154.9094521262429L236.1169921875,154.98337846235796L238.49982421875,155.0343417080966L240.88265625,158.15233431729402L243.26548828125001,155.1357743696733L245.6483203125,158.73169555664063L248.03115234375,154.75085865367544L250.41398437499998,156.86126542524858L252.79681640625,152.52850064364347L255.1796484375,154.26888067072088L257.56248046875004,155.37703496759588L259.9453125,157.38353992808948L262.32814453125,154.87019264914773" style="fill: none;" fill="none"></path></g><g><path stroke="rgb(255, 112, 67)" stroke-width="2px" d="M33.57626953125,-800.3425148703834L35.9591015625,29.740016867897733L38.34193359375,26.987384310635655L40.724765624999996,44.38506109064275L43.10759765625,41.83213334517045L45.4904296875,40.75355945933948L47.87326171875,51.56633550470525L50.25609375,54.00822559703481L52.63892578125,58.38192887739702L55.0217578125,57.94967956542969L57.40458984375,56.08236056241122L59.787421875,60.025592318448155L62.17025390625,58.92980846058238L64.5530859375,66.75323458584873L66.93591796875,62.05214677290482L69.31875,66.94563071511008L71.70158203125,64.48783929998224L74.0844140625,64.00025634765625L76.46724609374999,70.49913191361861L78.85007812500001,66.67083906693892L81.23291015625,70.38357571688564L83.61574218749999,63.30375865589488L85.99857421875001,79.10021667480468L88.38140625,66.11081126819957L90.76423828124999,66.66975264115767L93.1470703125,72.78907054554332L95.52990234375,76.52995549982244L97.91273437500001,76.72148742675782L100.29556640625,75.01132978959518L102.6783984375,76.968476451527L105.06123046875001,81.28980907093394L107.4440625,76.23143532492898L109.82689453124999,77.60452936345881L112.20972656250001,79.3974775834517L114.59255859375,81.2040802001953L116.975390625,84.97610112970526L119.35822265625,87.59110329367898L121.7410546875,83.09710304953836L124.12388671875,91.13178960626776L126.50671875,84.74997641823508L128.88955078125,81.75716968883168L131.2723828125,91.31287703080612L133.65521484375,89.59195390181107L136.038046875,87.28724975585938L138.42087890625,85.8995136607777L140.8037109375,91.1066289728338L143.18654296875002,89.73662137118252L145.569375,91.50211264870383L147.95220703125,100.7129785711115L150.3350390625,92.76305791681463L152.71787109375,97.68859141956676L155.100703125,97.78701171875L157.48353515625,102.45607466264205L159.8663671875,100.59685446999289L162.24919921875,106.2798242742365L164.63203124999998,108.13203208229757L167.01486328125,100.37850757945668L169.39769531250002,104.91468089710582L171.78052734375,105.3441153786399L174.163359375,112.1462518865412L176.54619140625,112.11731345436789L178.9290234375,117.75850524902344L181.31185546875,114.1244110107422L183.69468750000001,118.98762318004262L186.07751953125,120.61782975630327L188.4603515625,117.31339166814631L190.84318359374998,121.59306973544035L193.226015625,123.09712746360086L195.60884765625,123.14967096502131L197.9916796875,128.2581190629439L200.37451171875,122.3613456032493L202.75734375,130.7336883544922L205.14017578125,131.99354719682174L207.5230078125,125.71020369096236L209.90583984375002,131.46077880859374L212.288671875,136.6387334650213L214.67150390625,132.59115545099434L217.05433593749999,137.55555336692117L219.43716796875,138.9542031028054L221.82,140.98184398304332L224.20283203125,133.54955583052202L226.5856640625,136.08342174183238L228.96849609375,140.18243214000356L231.351328125,141.56582253196024L233.73416015625,143.8148473566229L236.1169921875,139.71245422363282L238.49982421875,139.77349159934303L240.88265625,140.24216086647726L243.26548828125001,138.29854514382103L245.6483203125,138.65064586292613L248.03115234375,146.2644658868963L250.41398437499998,148.19721735174008L252.79681640625,143.48440107865767L255.1796484375,146.85577780983664L257.56248046875004,142.69977944113992L259.9453125,144.76687733043323L262.32814453125,138.7077819824219" style="fill: none;" fill="none"></path></g></g></g></g></g></g><g transform="translate(41, 178)" clip-path="url(#clip_1)"><clipPath id="clip_1"><rect width="288" height="22"></rect></clipPath><g><g><line x1="0" y1="0" x2="0" y2="5" style="visibility: inherit;" fill="rgb(0, 0, 0)" stroke="rgb(204, 204, 204)" stroke-width="1px"></line><line x1="24.069010416666664" y1="0" x2="24.069010416666664" y2="5" style="visibility: inherit;" fill="rgb(0, 0, 0)" stroke="rgb(204, 204, 204)" stroke-width="1px"></line><line x1="48.13802083333333" y1="0" x2="48.13802083333333" y2="5" style="visibility: inherit;" fill="rgb(0, 0, 0)" stroke="rgb(204, 204, 204)" stroke-width="1px"></line><line x1="72.20703125" y1="0" x2="72.20703125" y2="5" style="visibility: inherit;" fill="rgb(0, 0, 0)" stroke="rgb(204, 204, 204)" stroke-width="1px"></line><line x1="96.27604166666666" y1="0" x2="96.27604166666666" y2="5" style="visibility: inherit;" fill="rgb(0, 0, 0)" stroke="rgb(204, 204, 204)" stroke-width="1px"></line><line x1="120.34505208333334" y1="0" x2="120.34505208333334" y2="5" style="visibility: inherit;" fill="rgb(0, 0, 0)" stroke="rgb(204, 204, 204)" stroke-width="1px"></line><line x1="144.4140625" y1="0" x2="144.4140625" y2="5" style="visibility: inherit;" fill="rgb(0, 0, 0)" stroke="rgb(204, 204, 204)" stroke-width="1px"></line><line x1="168.48307291666669" y1="0" x2="168.48307291666669" y2="5" style="visibility: inherit;" fill="rgb(0, 0, 0)" stroke="rgb(204, 204, 204)" stroke-width="1px"></line><line x1="192.55208333333331" y1="0" x2="192.55208333333331" y2="5" style="visibility: inherit;" fill="rgb(0, 0, 0)" stroke="rgb(204, 204, 204)" stroke-width="1px"></line><line x1="216.62109375" y1="0" x2="216.62109375" y2="5" style="visibility: inherit;" fill="rgb(0, 0, 0)" stroke="rgb(204, 204, 204)" stroke-width="1px"></line><line x1="240.69010416666669" y1="0" x2="240.69010416666669" y2="5" style="visibility: inherit;" fill="rgb(0, 0, 0)" stroke="rgb(204, 204, 204)" stroke-width="1px"></line><line x1="264.7591145833333" y1="0" x2="264.7591145833333" y2="5" style="visibility: inherit;" fill="rgb(0, 0, 0)" stroke="rgb(204, 204, 204)" stroke-width="1px"></line><line x1="288.828125" y1="0" x2="288.828125" y2="5" style="visibility: inherit;" fill="rgb(0, 0, 0)" stroke="rgb(204, 204, 204)" stroke-width="1px"></line></g><g transform="translate(0, 8)"><text x="0" y="0" dx="0em" dy="0.95em" style="text-anchor: middle; visibility: hidden; font-family: Roboto, sans-serif; font-size: 12px; font-weight: 200;" fill="rgb(50, 49, 63)" stroke="none" stroke-width="1px">-1k</text><text x="24.069010416666664" y="0" dx="0em" dy="0.95em" style="text-anchor: middle; visibility: inherit; font-family: Roboto, sans-serif; font-size: 12px; font-weight: 200;" fill="rgb(50, 49, 63)" stroke="none" stroke-width="1px">0</text><text x="48.13802083333333" y="0" dx="0em" dy="0.95em" style="text-anchor: middle; visibility: inherit; font-family: Roboto, sans-serif; font-size: 12px; font-weight: 200;" fill="rgb(50, 49, 63)" stroke="none" stroke-width="1px">1k</text><text x="72.20703125" y="0" dx="0em" dy="0.95em" style="text-anchor: middle; visibility: inherit; font-family: Roboto, sans-serif; font-size: 12px; font-weight: 200;" fill="rgb(50, 49, 63)" stroke="none" stroke-width="1px">2k</text><text x="96.27604166666666" y="0" dx="0em" dy="0.95em" style="text-anchor: middle; visibility: inherit; font-family: Roboto, sans-serif; font-size: 12px; font-weight: 200;" fill="rgb(50, 49, 63)" stroke="none" stroke-width="1px">3k</text><text x="120.34505208333334" y="0" dx="0em" dy="0.95em" style="text-anchor: middle; visibility: inherit; font-family: Roboto, sans-serif; font-size: 12px; font-weight: 200;" fill="rgb(50, 49, 63)" stroke="none" stroke-width="1px">4k</text><text x="144.4140625" y="0" dx="0em" dy="0.95em" style="text-anchor: middle; visibility: inherit; font-family: Roboto, sans-serif; font-size: 12px; font-weight: 200;" fill="rgb(50, 49, 63)" stroke="none" stroke-width="1px">5k</text><text x="168.48307291666669" y="0" dx="0em" dy="0.95em" style="text-anchor: middle; visibility: inherit; font-family: Roboto, sans-serif; font-size: 12px; font-weight: 200;" fill="rgb(50, 49, 63)" stroke="none" stroke-width="1px">6k</text><text x="192.55208333333331" y="0" dx="0em" dy="0.95em" style="text-anchor: middle; visibility: inherit; font-family: Roboto, sans-serif; font-size: 12px; font-weight: 200;" fill="rgb(50, 49, 63)" stroke="none" stroke-width="1px">7k</text><text x="216.62109375" y="0" dx="0em" dy="0.95em" style="text-anchor: middle; visibility: inherit; font-family: Roboto, sans-serif; font-size: 12px; font-weight: 200;" fill="rgb(50, 49, 63)" stroke="none" stroke-width="1px">8k</text><text x="240.69010416666669" y="0" dx="0em" dy="0.95em" style="text-anchor: middle; visibility: inherit; font-family: Roboto, sans-serif; font-size: 12px; font-weight: 200;" fill="rgb(50, 49, 63)" stroke="none" stroke-width="1px">9k</text><text x="264.7591145833333" y="0" dx="0em" dy="0.95em" style="text-anchor: middle; visibility: inherit; font-family: Roboto, sans-serif; font-size: 12px; font-weight: 200;" fill="rgb(50, 49, 63)" stroke="none" stroke-width="1px">10k</text><text x="288.828125" y="0" dx="0em" dy="0.95em" style="text-anchor: middle; visibility: hidden; font-family: Roboto, sans-serif; font-size: 12px; font-weight: 200;" fill="rgb(50, 49, 63)" stroke="none" stroke-width="1px">11k</text></g><line x1="0" y1="0" x2="288.828125" y2="0" fill="rgb(0, 0, 0)" stroke="rgb(204, 204, 204)" stroke-width="1px"></line></g></g></g></g></svg>