<svg viewBox="0 0 330 200" xmlns="http://www.w3.org/2000/svg"><g><g><g><g><g><line x1="72.34375" y1="178" x2="67.34375" y2="178" style="visibility: inherit;" fill="rgb(0, 0, 0)" stroke="rgb(204, 204, 204)" stroke-width="1px"></line><line x1="72.34375" y1="164.30769230769232" x2="67.34375" y2="164.30769230769232" style="visibility: inherit;" fill="rgb(0, 0, 0)" stroke="rgb(204, 204, 204)" stroke-width="1px"></line><line x1="72.34375" y1="150.6153846153846" x2="67.34375" y2="150.6153846153846" style="visibility: inherit;" fill="rgb(0, 0, 0)" stroke="rgb(204, 204, 204)" stroke-width="1px"></line><line x1="72.34375" y1="136.9230769230769" x2="67.34375" y2="136.9230769230769" style="visibility: inherit;" fill="rgb(0, 0, 0)" stroke="rgb(204, 204, 204)" stroke-width="1px"></line><line x1="72.34375" y1="123.23076923076923" x2="67.34375" y2="123.23076923076923" style="visibility: inherit;" fill="rgb(0, 0, 0)" stroke="rgb(204, 204, 204)" stroke-width="1px"></line><line x1="72.34375" y1="109.53846153846155" x2="67.34375" y2="109.53846153846155" style="visibility: inherit;" fill="rgb(0, 0, 0)" stroke="rgb(204, 204, 204)" stroke-width="1px"></line><line x1="72.34375" y1="95.84615384615383" x2="67.34375" y2="95.84615384615383" style="visibility: inherit;" fill="rgb(0, 0, 0)" stroke="rgb(204, 204, 204)" stroke-width="1px"></line><line x1="72.34375" y1="82.15384615384616" x2="67.34375" y2="82.15384615384616" style="visibility: inherit;" fill="rgb(0, 0, 0)" stroke="rgb(204, 204, 204)" stroke-width="1px"></line><line x1="72.34375" y1="68.46153846153845" x2="67.34375" y2="68.46153846153845" style="visibility: inherit;" fill="rgb(0, 0, 0)" stroke="rgb(204, 204, 204)" stroke-width="1px"></line><line x1="72.34375" y1="54.76923076923075" x2="67.34375" y2="54.76923076923075" style="visibility: inherit;" fill="rgb(0, 0, 0)" stroke="rgb(204, 204, 204)" stroke-width="1px"></line><line x1="72.34375" y1="41.076923076923066" x2="67.34375" y2="41.076923076923066" style="visibility: inherit;" fill="rgb(0, 0, 0)" stroke="rgb(204, 204, 204)" stroke-width="1px"></line><line x1="72.34375" y1="27.384615384615365" x2="67.34375" y2="27.384615384615365" style="visibility: inherit;" fill="rgb(0, 0, 0)" stroke="rgb(204, 204, 204)" stroke-width="1px"></line><line x1="72.34375" y1="13.692307692307663" x2="67.34375" y2="13.692307692307663" style="visibility: inherit;" fill="rgb(0, 0, 0)" stroke="rgb(204, 204, 204)" stroke-width="1px"></line></g><g transform="translate(62.34375, 0)"><text x="0" y="178" dx="0em" dy="0.3em" style="text-anchor: end; visibility: hidden; font-family: Roboto, sans-serif; font-size: 12px; font-weight: 200;" fill="rgb(50, 49, 63)" stroke="none" stroke-width="1px">-5e-5</text><text x="0" y="164.30769230769232" dx="0em" dy="0.3em" style="text-anchor: end; visibility: inherit; font-family: Roboto, sans-serif; font-size: 12px; font-weight: 200;" fill="rgb(50, 49, 63)" stroke="none" stroke-width="1px">0</text><text x="0" y="150.6153846153846" dx="0em" dy="0.3em" style="text-anchor: end; visibility: hidden; font-family: Roboto, sans-serif; font-size: 12px; font-weight: 200;" fill="rgb(50, 49, 63)" stroke="none" stroke-width="1px">5e-5</text><text x="0" y="136.9230769230769" dx="0em" dy="0.3em" style="text-anchor: end; visibility: inherit; font-family: Roboto, sans-serif; font-size: 12px; font-weight: 200;" fill="rgb(50, 49, 63)" stroke="none" stroke-width="1px">1e-4</text><text x="0" y="123.23076923076923" dx="0em" dy="0.3em" style="text-anchor: end; visibility: hidden; font-family: Roboto, sans-serif; font-size: 12px; font-weight: 200;" fill="rgb(50, 49, 63)" stroke="none" stroke-width="1px">1.5e-4</text><text x="0" y="109.53846153846155" dx="0em" dy="0.3em" style="text-anchor: end; visibility: inherit; font-family: Roboto, sans-serif; font-size: 12px; font-weight: 200;" fill="rgb(50, 49, 63)" stroke="none" stroke-width="1px">2e-4</text><text x="0" y="95.84615384615383" dx="0em" dy="0.3em" style="text-anchor: end; visibility: hidden; font-family: Roboto, sans-serif; font-size: 12px; font-weight: 200;" fill="rgb(50, 49, 63)" stroke="none" stroke-width="1px">2.5e-4</text><text x="0" y="82.15384615384616" dx="0em" dy="0.3em" style="text-anchor: end; visibility: inherit; font-family: Roboto, sans-serif; font-size: 12px; font-weight: 200;" fill="rgb(50, 49, 63)" stroke="none" stroke-width="1px">3e-4</text><text x="0" y="68.46153846153845" dx="0em" dy="0.3em" style="text-anchor: end; visibility: hidden; font-family: Roboto, sans-serif; font-size: 12px; font-weight: 200;" fill="rgb(50, 49, 63)" stroke="none" stroke-width="1px">3.5e-4</text><text x="0" y="54.76923076923075" dx="0em" dy="0.3em" style="text-anchor: end; visibility: inherit; font-family: Roboto, sans-serif; font-size: 12px; font-weight: 200;" fill="rgb(50, 49, 63)" stroke="none" stroke-width="1px">4e-4</text><text x="0" y="41.076923076923066" dx="0em" dy="0.3em" style="text-anchor: end; visibility: hidden; font-family: Roboto, sans-serif; font-size: 12px; font-weight: 200;" fill="rgb(50, 49, 63)" stroke="none" stroke-width="1px">4.5e-4</text><text x="0" y="27.384615384615365" dx="0em" dy="0.3em" style="text-anchor: end; visibility: inherit; font-family: Roboto, sans-serif; font-size: 12px; font-weight: 200;" fill="rgb(50, 49, 63)" stroke="none" stroke-width="1px">5e-4</text><text x="0" y="13.692307692307663" dx="0em" dy="0.3em" style="text-anchor: end; visibility: hidden; font-family: Roboto, sans-serif; font-size: 12px; font-weight: 200;" fill="rgb(50, 49, 63)" stroke="none" stroke-width="1px">5.5e-4</text></g><line x1="72.34375" y1="0" x2="72.34375" y2="178" fill="rgb(0, 0, 0)" stroke="rgb(204, 204, 204)" stroke-width="1px"></line></g></g><g transform="translate(72, 0)" clip-path="url(#clip_0)"><clipPath id="clip_0"><rect width="257" height="178"></rect></clipPath><g><g><g><line x1="0" y1="0" x2="0" y2="178" fill="rgb(0, 0, 0)" stroke="rgb(60, 60, 60)" stroke-width="1px" opacity="0.25"></line><line x1="21.471354166666664" y1="0" x2="21.471354166666664" y2="178" fill="rgb(0, 0, 0)" stroke="rgb(60, 60, 60)" stroke-width="1px" opacity="0.25"></line><line x1="42.94270833333333" y1="0" x2="42.94270833333333" y2="178" fill="rgb(0, 0, 0)" stroke="rgb(60, 60, 60)" stroke-width="1px" opacity="0.25"></line><line x1="64.4140625" y1="0" x2="64.4140625" y2="178" fill="rgb(0, 0, 0)" stroke="rgb(60, 60, 60)" stroke-width="1px" opacity="0.25"></line><line x1="85.88541666666666" y1="0" x2="85.88541666666666" y2="178" fill="rgb(0, 0, 0)" stroke="rgb(60, 60, 60)" stroke-width="1px" opacity="0.25"></line><line x1="107.35677083333334" y1="0" x2="107.35677083333334" y2="178" fill="rgb(0, 0, 0)" stroke="rgb(60, 60, 60)" stroke-width="1px" opacity="0.25"></line><line x1="128.828125" y1="0" x2="128.828125" y2="178" fill="rgb(0, 0, 0)" stroke="rgb(60, 60, 60)" stroke-width="1px" opacity="0.25"></line><line x1="150.29947916666669" y1="0" x2="150.29947916666669" y2="178" fill="rgb(0, 0, 0)" stroke="rgb(60, 60, 60)" stroke-width="1px" opacity="0.25"></line><line x1="171.77083333333331" y1="0" x2="171.77083333333331" y2="178" fill="rgb(0, 0, 0)" stroke="rgb(60, 60, 60)" stroke-width="1px" opacity="0.25"></line><line x1="193.2421875" y1="0" x2="193.2421875" y2="178" fill="rgb(0, 0, 0)" stroke="rgb(60, 60, 60)" stroke-width="1px" opacity="0.25"></line><line x1="214.71354166666669" y1="0" x2="214.71354166666669" y2="178" fill="rgb(0, 0, 0)" stroke="rgb(60, 60, 60)" stroke-width="1px" opacity="0.25"></line><line x1="236.18489583333331" y1="0" x2="236.18489583333331" y2="178" fill="rgb(0, 0, 0)" stroke="rgb(60, 60, 60)" stroke-width="1px" opacity="0.25"></line><line x1="257.65625" y1="0" x2="257.65625" y2="178" fill="rgb(0, 0, 0)" stroke="rgb(60, 60, 60)" stroke-width="1px" opacity="0.25"></line></g><g><line x1="0" y1="178" x2="257.65625" y2="178" fill="rgb(0, 0, 0)" stroke="rgb(60, 60, 60)" stroke-width="1px" opacity="0.25"></line><line x1="0" y1="164.30769230769232" x2="257.65625" y2="164.30769230769232" fill="rgb(0, 0, 0)" stroke="rgb(60, 60, 60)" stroke-width="1px" opacity="0.25"></line><line x1="0" y1="150.6153846153846" x2="257.65625" y2="150.6153846153846" fill="rgb(0, 0, 0)" stroke="rgb(60, 60, 60)" stroke-width="1px" opacity="0.25"></line><line x1="0" y1="136.9230769230769" x2="257.65625" y2="136.9230769230769" fill="rgb(0, 0, 0)" stroke="rgb(60, 60, 60)" stroke-width="1px" opacity="0.25"></line><line x1="0" y1="123.23076923076923" x2="257.65625" y2="123.23076923076923" fill="rgb(0, 0, 0)" stroke="rgb(60, 60, 60)" stroke-width="1px" opacity="0.25"></line><line x1="0" y1="109.53846153846155" x2="257.65625" y2="109.53846153846155" fill="rgb(0, 0, 0)" stroke="rgb(60, 60, 60)" stroke-width="1px" opacity="0.25"></line><line x1="0" y1="95.84615384615383" x2="257.65625" y2="95.84615384615383" fill="rgb(0, 0, 0)" stroke="rgb(60, 60, 60)" stroke-width="1px" opacity="0.25"></line><line x1="0" y1="82.15384615384616" x2="257.65625" y2="82.15384615384616" fill="rgb(0, 0, 0)" stroke="rgb(60, 60, 60)" stroke-width="1px" opacity="0.25"></line><line x1="0" y1="68.46153846153845" x2="257.65625" y2="68.46153846153845" fill="rgb(0, 0, 0)" stroke="rgb(60, 60, 60)" stroke-width="1px" opacity="0.25"></line><line x1="0" y1="54.76923076923075" x2="257.65625" y2="54.76923076923075" fill="rgb(0, 0, 0)" stroke="rgb(60, 60, 60)" stroke-width="1px" opacity="0.25"></line><line x1="0" y1="41.076923076923066" x2="257.65625" y2="41.076923076923066" fill="rgb(0, 0, 0)" stroke="rgb(60, 60, 60)" stroke-width="1px" opacity="0.25"></line><line x1="0" y1="27.384615384615365" x2="257.65625" y2="27.384615384615365" fill="rgb(0, 0, 0)" stroke="rgb(60, 60, 60)" stroke-width="1px" opacity="0.25"></line><line x1="0" y1="13.692307692307663" x2="257.65625" y2="13.692307692307663" fill="rgb(0, 0, 0)" stroke="rgb(60, 60, 60)" stroke-width="1px" opacity="0.25"></line></g></g></g><g><g><line x1="0" y1="164.30769230769232" x2="257.65625" y2="164.30769230769232" fill="rgb(0, 0, 0)" stroke="rgb(153, 153, 153)" stroke-width="1.5px"></line></g></g><g><g><line x1="21.471354166666664" y1="0" x2="21.471354166666664" y2="178" fill="rgb(0, 0, 0)" stroke="rgb(153, 153, 153)" stroke-width="1.5px"></line></g></g><g><g><g><g><g><path stroke="rgb(238, 51, 119)" stroke-width="2px" d="M21.471354166666664,158.83076936912795L23.597018229166668,155.607598110729L25.722682291666665,146.25422523116978L27.84834635416667,131.68805926744466L29.974010416666665,113.33780039488695L32.099674479166666,93.00330939014943L34.225338541666666,72.67905182950197L36.351002604166666,54.358501027696384L38.47666666666667,39.83860672910052L40.60233072916667,30.54352323624949L42.72799479166667,27.384624821062264L44.85365885416667,27.42716853177317L46.97932291666666,27.55307814994683L49.10498697916667,27.762178336198506L51.23065104166667,28.05424593131128L53.35631510416667,28.428898376627593L55.48197916666666,28.885673413769535L57.60764322916666,29.42404502458297L59.73330729166667,30.04334373141709L61.85897135416667,30.742812386928826L63.98463541666666,31.521598204110667L66.11029947916667,32.37874478631867L68.23596354166666,33.31322400716061L70.36162760416667,34.32388819066376L72.48729166666666,35.40950996113509L74.61295572916667,36.56875833324514L76.73861979166666,37.8002305919161L78.86428385416666,39.10242041243382L80.98994791666667,40.47374177036375L83.11561197916667,41.912528941551074L85.24127604166667,43.41702853214855L87.36694010416667,44.985399478616614L89.49260416666667,46.615736957639434L91.61826822916666,48.30605644618089L93.74393229166667,50.05429372148444L95.86959635416666,51.85832080101736L97.99526041666667,53.715937972498615L100.12092447916666,55.62488973384291L102.24658854166667,57.58284088324468L104.37225260416668,59.587408399066085L106.49791666666667,61.63615346986513L108.62358072916666,63.72658149439554L110.74924479166667,65.8561341116348L112.87490885416666,68.02222905064431L115.00057291666667,70.22222028070917L117.12623697916666,72.45342989122636L119.25190104166666,74.7131480917048L121.37756510416668,76.99860133187701L123.50322916666667,79.30702403144767L125.62889322916666,81.63559482031715L127.75455729166667,83.98147638844182L129.88022135416668,86.34181548583392L132.00588541666667,88.71373495258962L134.13154947916667,91.09434168886105L136.2572135416667,93.4807425948003L138.38287760416668,95.87002066064338L140.50854166666667,98.25926684659834L142.63420572916667,100.64557609785919L144.75986979166666,103.02603538964803L146.88553385416668,105.39775162211691L149.01119791666667,107.75782372544592L151.13686197916667,110.10338649468925L153.26252604166666,112.43157870988719L155.38819010416665,114.73956306099603L157.51385416666665,117.02453013287428L159.63951822916667,119.2836944202964L161.76518229166666,121.51430229792516L163.89084635416665,123.7136360052973L166.01651041666665,125.87901763180986L168.14217447916667,128.00780911672L170.2678385416667,130.09741623413106L172.39350260416668,132.14529257797852L174.51916666666668,134.14894354701616L176.64483072916667,136.10592833730894L178.77049479166666,138.01386193472604L180.89615885416666,139.87042109241995L183.02182291666668,141.67334433082635L185.14748697916667,143.42043193766418L187.27315104166667,145.1095579228937L189.39881510416666,146.73866404123748L191.52447916666665,148.3057637771663L193.65014322916667,149.8089503148714L195.77580729166667,151.24639155703167L197.90147135416666,152.61633510604645L200.02713541666665,153.91711324526784L202.15279947916665,155.14713995026136L204.27846354166664,156.3049173644081L206.4041276041667,157.38903480265827L208.52979166666668,158.39817174027064L210.65545572916668,159.33109781281271L212.78111979166667,160.18667705020815L214.90678385416666,160.96386712955203L217.03244791666668,161.66172086948063L219.15811197916668,162.2793880981335L221.28377604166667,162.8161162758076L223.40944010416666,163.271251678L225.53510416666666,163.6442395822042L227.66076822916668,163.93462560661618L229.78643229166667,164.14205600589523L231.91209635416666,164.26627804475635" style="fill: none;" fill="none"></path></g><g><path stroke="rgb(51, 187, 238)" stroke-width="2px" d="M21.471354166666664,158.83076936912795L23.597018229166668,155.607598110729L25.722682291666665,146.25422523116978L27.84834635416667,131.68805926744466L29.974010416666665,113.33780039488695L32.099674479166666,93.00330939014943L34.225338541666666,72.67905182950197L36.351002604166666,54.358501027696384L38.47666666666667,39.83860672910052L40.60233072916667,30.54352323624949L42.72799479166667,27.384624821062264L44.85365885416667,27.42716853177317L46.97932291666666,27.55307814994683L49.10498697916667,27.762178336198506L51.23065104166667,28.05424593131128L53.35631510416667,28.428898376627593L55.48197916666666,28.885673413769535L57.60764322916666,29.42404502458297L59.73330729166667,30.04334373141709L61.85897135416667,30.742812386928826L63.98463541666666,31.521598204110667L66.11029947916667,32.37874478631867L68.23596354166666,33.31322400716061L70.36162760416667,34.32388819066376L72.48729166666666,35.40950996113509L74.61295572916667,36.56875833324514L76.73861979166666,37.8002305919161L78.86428385416666,39.10242041243382L80.98994791666667,40.47374177036375L83.11561197916667,41.912528941551074L85.24127604166667,43.41702853214855L87.36694010416667,44.985399478616614L89.49260416666667,46.615736957639434L91.61826822916666,48.30605644618089L93.74393229166667,50.05429372148444L95.86959635416666,51.85832080101736L97.99526041666667,53.715937972498615L100.12092447916666,55.62488973384291L102.24658854166667,57.58284088324468L104.37225260416668,59.587408399066085L106.49791666666667,61.63615346986513L108.62358072916666,63.72658149439554L110.74924479166667,65.8561341116348L112.87490885416666,68.02222905064431L115.00057291666667,70.22222028070917L117.12623697916666,72.45342989122636L119.25190104166666,74.7131480917048L121.37756510416668,76.99860133187701L123.50322916666667,79.30702403144767L125.62889322916666,81.63559482031715L127.75455729166667,83.98147638844182L129.88022135416668,86.34181548583392L132.00588541666667,88.71373495258962L134.13154947916667,91.09434168886105L136.2572135416667,93.4807425948003L138.38287760416668,95.87002066064338L140.50854166666667,98.25926684659834L142.63420572916667,100.64557609785919L144.75986979166666,103.02603538964803L146.88553385416668,105.39775162211691L149.01119791666667,107.75782372544592L151.13686197916667,110.10338649468925L153.26252604166666,112.43157870988719L155.38819010416665,114.73956306099603L157.51385416666665,117.02453013287428L159.63951822916667,119.2836944202964L161.76518229166666,121.51430229792516L163.89084635416665,123.7136360052973L166.01651041666665,125.87901763180986L168.14217447916667,128.00780911672L170.2678385416667,130.09741623413106L172.39350260416668,132.14529257797852L174.51916666666668,134.14894354701616L176.64483072916667,136.10592833730894L178.77049479166666,138.01386193472604L180.89615885416666,139.87042109241995L183.02182291666668,141.67334433082635L185.14748697916667,143.42043193766418L187.27315104166667,145.1095579228937L189.39881510416666,146.73866404123748L191.52447916666665,148.3057637771663L193.65014322916667,149.8089503148714L195.77580729166667,151.24639155703167L197.90147135416666,152.61633510604645L200.02713541666665,153.91711324526784L202.15279947916665,155.14713995026136L204.27846354166664,156.3049173644081L206.4041276041667,157.38903480265827L208.52979166666668,158.39817174027064L210.65545572916668,159.33109781281271L212.78111979166667,160.18667705020815L214.90678385416666,160.96386712955203L217.03244791666668,161.66172086948063L219.15811197916668,162.2793880981335L221.28377604166667,162.8161162758076L223.40944010416666,163.271251678L225.53510416666666,163.6442395822042L227.66076822916668,163.93462560661618L229.78643229166667,164.14205600589523L231.91209635416666,164.26627804475635" style="fill: none;" fill="none"></path></g><g><path stroke="rgb(204, 51, 17)" stroke-width="2px" d="M21.471354166666664,158.83076936912795L23.597018229166668,155.607598110729L25.722682291666665,146.25422523116978L27.84834635416667,131.68805926744466L29.974010416666665,113.33780039488695L32.099674479166666,93.00330939014943L34.225338541666666,72.67905182950197L36.351002604166666,54.358501027696384L38.47666666666667,39.83860672910052L40.60233072916667,30.54352323624949L42.72799479166667,27.384624821062264L44.85365885416667,27.42716853177317L46.97932291666666,27.55307814994683L49.10498697916667,27.762178336198506L51.23065104166667,28.05424593131128L53.35631510416667,28.428898376627593L55.48197916666666,28.885673413769535L57.60764322916666,29.42404502458297L59.73330729166667,30.04334373141709L61.85897135416667,30.742812386928826L63.98463541666666,31.521598204110667L66.11029947916667,32.37874478631867L68.23596354166666,33.31322400716061L70.36162760416667,34.32388819066376L72.48729166666666,35.40950996113509L74.61295572916667,36.56875833324514L76.73861979166666,37.8002305919161L78.86428385416666,39.10242041243382L80.98994791666667,40.47374177036375L83.11561197916667,41.912528941551074L85.24127604166667,43.41702853214855L87.36694010416667,44.985399478616614L89.49260416666667,46.615736957639434L91.61826822916666,48.30605644618089L93.74393229166667,50.05429372148444L95.86959635416666,51.85832080101736L97.99526041666667,53.715937972498615L100.12092447916666,55.62488973384291L102.24658854166667,57.58284088324468L104.37225260416668,59.587408399066085L106.49791666666667,61.63615346986513L108.62358072916666,63.72658149439554L110.74924479166667,65.8561341116348L112.87490885416666,68.02222905064431L115.00057291666667,70.22222028070917L117.12623697916666,72.45342989122636L119.25190104166666,74.7131480917048L121.37756510416668,76.99860133187701L123.50322916666667,79.30702403144767L125.62889322916666,81.63559482031715L127.75455729166667,83.98147638844182L129.88022135416668,86.34181548583392L132.00588541666667,88.71373495258962L134.13154947916667,91.09434168886105L136.2572135416667,93.4807425948003L138.38287760416668,95.87002066064338L140.50854166666667,98.25926684659834L142.63420572916667,100.64557609785919L144.75986979166666,103.02603538964803L146.88553385416668,105.39775162211691L149.01119791666667,107.75782372544592L151.13686197916667,110.10338649468925L153.26252604166666,112.43157870988719L155.38819010416665,114.73956306099603L157.51385416666665,117.02453013287428L159.63951822916667,119.2836944202964L161.76518229166666,121.51430229792516L163.89084635416665,123.7136360052973L166.01651041666665,125.87901763180986L168.14217447916667,128.00780911672L170.2678385416667,130.09741623413106L172.39350260416668,132.14529257797852L174.51916666666668,134.14894354701616L176.64483072916667,136.10592833730894L178.77049479166666,138.01386193472604L180.89615885416666,139.87042109241995L183.02182291666668,141.67334433082635L185.14748697916667,143.42043193766418L187.27315104166667,145.1095579228937L189.39881510416666,146.73866404123748L191.52447916666665,148.3057637771663L193.65014322916667,149.8089503148714L195.77580729166667,151.24639155703167L197.90147135416666,152.61633510604645L200.02713541666665,153.91711324526784L202.15279947916665,155.14713995026136L204.27846354166664,156.3049173644081L206.4041276041667,157.38903480265827L208.52979166666668,158.39817174027064L210.65545572916668,159.33109781281271L212.78111979166667,160.18667705020815L214.90678385416666,160.96386712955203L217.03244791666668,161.66172086948063L219.15811197916668,162.2793880981335L221.28377604166667,162.8161162758076L223.40944010416666,163.271251678L225.53510416666666,163.6442395822042L227.66076822916668,163.93462560661618L229.78643229166667,164.14205600589523L231.91209635416666,164.26627804475635" style="fill: none;" fill="none"></path></g><g><path stroke="rgb(0, 119, 187)" stroke-width="2px" d="M21.471354166666664,158.83076936912795L23.597018229166668,155.607598110729L25.722682291666665,146.25422523116978L27.84834635416667,131.68805926744466L29.974010416666665,113.33780039488695L32.099674479166666,93.00330939014943L34.225338541666666,72.67905182950197L36.351002604166666,54.358501027696384L38.47666666666667,39.83860672910052L40.60233072916667,30.54352323624949L42.72799479166667,27.384624821062264L44.85365885416667,27.42716853177317L46.97932291666666,27.55307814994683L49.10498697916667,27.762178336198506L51.23065104166667,28.05424593131128L53.35631510416667,28.428898376627593L55.48197916666666,28.885673413769535L57.60764322916666,29.42404502458297L59.73330729166667,30.04334373141709L61.85897135416667,30.742812386928826L63.98463541666666,31.521598204110667L66.11029947916667,32.37874478631867L68.23596354166666,33.31322400716061L70.36162760416667,34.32388819066376L72.48729166666666,35.40950996113509L74.61295572916667,36.56875833324514L76.73861979166666,37.8002305919161L78.86428385416666,39.10242041243382L80.98994791666667,40.47374177036375L83.11561197916667,41.912528941551074L85.24127604166667,43.41702853214855L87.36694010416667,44.985399478616614L89.49260416666667,46.615736957639434L91.61826822916666,48.30605644618089L93.74393229166667,50.05429372148444L95.86959635416666,51.85832080101736L97.99526041666667,53.715937972498615L100.12092447916666,55.62488973384291L102.24658854166667,57.58284088324468L104.37225260416668,59.587408399066085L106.49791666666667,61.63615346986513L108.62358072916666,63.72658149439554L110.74924479166667,65.8561341116348L112.87490885416666,68.02222905064431L115.00057291666667,70.22222028070917L117.12623697916666,72.45342989122636L119.25190104166666,74.7131480917048L121.37756510416668,76.99860133187701L123.50322916666667,79.30702403144767L125.62889322916666,81.63559482031715L127.75455729166667,83.98147638844182L129.88022135416668,86.34181548583392L132.00588541666667,88.71373495258962L134.13154947916667,91.09434168886105L136.2572135416667,93.4807425948003L138.38287760416668,95.87002066064338L140.50854166666667,98.25926684659834L142.63420572916667,100.64557609785919L144.75986979166666,103.02603538964803L146.88553385416668,105.39775162211691L149.01119791666667,107.75782372544592L151.13686197916667,110.10338649468925L153.26252604166666,112.43157870988719L155.38819010416665,114.73956306099603L157.51385416666665,117.02453013287428L159.63951822916667,119.2836944202964L161.76518229166666,121.51430229792516L163.89084635416665,123.7136360052973L166.01651041666665,125.87901763180986L168.14217447916667,128.00780911672L170.2678385416667,130.09741623413106L172.39350260416668,132.14529257797852L174.51916666666668,134.14894354701616L176.64483072916667,136.10592833730894L178.77049479166666,138.01386193472604L180.89615885416666,139.87042109241995L183.02182291666668,141.67334433082635L185.14748697916667,143.42043193766418L187.27315104166667,145.1095579228937L189.39881510416666,146.73866404123748L191.52447916666665,148.3057637771663L193.65014322916667,149.8089503148714L195.77580729166667,151.24639155703167L197.90147135416666,152.61633510604645L200.02713541666665,153.91711324526784L202.15279947916665,155.14713995026136L204.27846354166664,156.3049173644081L206.4041276041667,157.38903480265827L208.52979166666668,158.39817174027064L210.65545572916668,159.33109781281271L212.78111979166667,160.18667705020815L214.90678385416666,160.96386712955203L217.03244791666668,161.66172086948063L219.15811197916668,162.2793880981335L221.28377604166667,162.8161162758076L223.40944010416666,163.271251678L225.53510416666666,163.6442395822042L227.66076822916668,163.93462560661618L229.78643229166667,164.14205600589523L231.91209635416666,164.26627804475635" style="fill: none;" fill="none"></path></g><g><path stroke="rgb(255, 112, 67)" stroke-width="2px" d="M21.471354166666664,158.83076936912795L23.597018229166668,155.607598110729L25.722682291666665,146.25422523116978L27.84834635416667,131.68805926744466L29.974010416666665,113.33780039488695L32.099674479166666,93.00330939014943L34.225338541666666,72.67905182950197L36.351002604166666,54.358501027696384L38.47666666666667,39.83860672910052L40.60233072916667,30.54352323624949L42.72799479166667,27.384624821062264L44.85365885416667,27.42716853177317L46.97932291666666,27.55307814994683L49.10498697916667,27.762178336198506L51.23065104166667,28.05424593131128L53.35631510416667,28.428898376627593L55.48197916666666,28.885673413769535L57.60764322916666,29.42404502458297L59.73330729166667,30.04334373141709L61.85897135416667,30.742812386928826L63.98463541666666,31.521598204110667L66.11029947916667,32.37874478631867L68.23596354166666,33.31322400716061L70.36162760416667,34.32388819066376L72.48729166666666,35.40950996113509L74.61295572916667,36.56875833324514L76.73861979166666,37.8002305919161L78.86428385416666,39.10242041243382L80.98994791666667,40.47374177036375L83.11561197916667,41.912528941551074L85.24127604166667,43.41702853214855L87.36694010416667,44.985399478616614L89.49260416666667,46.615736957639434L91.61826822916666,48.30605644618089L93.74393229166667,50.05429372148444L95.86959635416666,51.85832080101736L97.99526041666667,53.715937972498615L100.12092447916666,55.62488973384291L102.24658854166667,57.58284088324468L104.37225260416668,59.587408399066085L106.49791666666667,61.63615346986513L108.62358072916666,63.72658149439554L110.74924479166667,65.8561341116348L112.87490885416666,68.02222905064431L115.00057291666667,70.22222028070917L117.12623697916666,72.45342989122636L119.25190104166666,74.7131480917048L121.37756510416668,76.99860133187701L123.50322916666667,79.30702403144767L125.62889322916666,81.63559482031715L127.75455729166667,83.98147638844182L129.88022135416668,86.34181548583392L132.00588541666667,88.71373495258962L134.13154947916667,91.09434168886105L136.2572135416667,93.4807425948003L138.38287760416668,95.87002066064338L140.50854166666667,98.25926684659834L142.63420572916667,100.64557609785919L144.75986979166666,103.02603538964803L146.88553385416668,105.39775162211691L149.01119791666667,107.75782372544592L151.13686197916667,110.10338649468925L153.26252604166666,112.43157870988719L155.38819010416665,114.73956306099603L157.51385416666665,117.02453013287428L159.63951822916667,119.2836944202964L161.76518229166666,121.51430229792516L163.89084635416665,123.7136360052973L166.01651041666665,125.87901763180986L168.14217447916667,128.00780911672L170.2678385416667,130.09741623413106L172.39350260416668,132.14529257797852L174.51916666666668,134.14894354701616L176.64483072916667,136.10592833730894L178.77049479166666,138.01386193472604L180.89615885416666,139.87042109241995L183.02182291666668,141.67334433082635L185.14748697916667,143.42043193766418L187.27315104166667,145.1095579228937L189.39881510416666,146.73866404123748L191.52447916666665,148.3057637771663L193.65014322916667,149.8089503148714L195.77580729166667,151.24639155703167L197.90147135416666,152.61633510604645L200.02713541666665,153.91711324526784L202.15279947916665,155.14713995026136L204.27846354166664,156.3049173644081L206.4041276041667,157.38903480265827L208.52979166666668,158.39817174027064L210.65545572916668,159.33109781281271L212.78111979166667,160.18667705020815L214.90678385416666,160.96386712955203L217.03244791666668,161.66172086948063L219.15811197916668,162.2793880981335L221.28377604166667,162.8161162758076L223.40944010416666,163.271251678L225.53510416666666,163.6442395822042L227.66076822916668,163.93462560661618L229.78643229166667,164.14205600589523L231.91209635416666,164.26627804475635" style="fill: none;" fill="none"></path></g></g></g></g></g><g><g opacity="0.967113"><span fill="rgb(0, 0, 0)" stroke="none" stroke-width="1px">Alt + Scroll to Zoom</span></g></g></g><g transform="translate(72, 178)" clip-path="url(#clip_1)"><clipPath id="clip_1"><rect width="257" height="22"></rect></clipPath><g><g><line x1="0" y1="0" x2="0" y2="5" style="visibility: inherit;" fill="rgb(0, 0, 0)" stroke="rgb(204, 204, 204)" stroke-width="1px"></line><line x1="21.471354166666664" y1="0" x2="21.471354166666664" y2="5" style="visibility: inherit;" fill="rgb(0, 0, 0)" stroke="rgb(204, 204, 204)" stroke-width="1px"></line><line x1="42.94270833333333" y1="0" x2="42.94270833333333" y2="5" style="visibility: inherit;" fill="rgb(0, 0, 0)" stroke="rgb(204, 204, 204)" stroke-width="1px"></line><line x1="64.4140625" y1="0" x2="64.4140625" y2="5" style="visibility: inherit;" fill="rgb(0, 0, 0)" stroke="rgb(204, 204, 204)" stroke-width="1px"></line><line x1="85.88541666666666" y1="0" x2="85.88541666666666" y2="5" style="visibility: inherit;" fill="rgb(0, 0, 0)" stroke="rgb(204, 204, 204)" stroke-width="1px"></line><line x1="107.35677083333334" y1="0" x2="107.35677083333334" y2="5" style="visibility: inherit;" fill="rgb(0, 0, 0)" stroke="rgb(204, 204, 204)" stroke-width="1px"></line><line x1="128.828125" y1="0" x2="128.828125" y2="5" style="visibility: inherit;" fill="rgb(0, 0, 0)" stroke="rgb(204, 204, 204)" stroke-width="1px"></line><line x1="150.29947916666669" y1="0" x2="150.29947916666669" y2="5" style="visibility: inherit;" fill="rgb(0, 0, 0)" stroke="rgb(204, 204, 204)" stroke-width="1px"></line><line x1="171.77083333333331" y1="0" x2="171.77083333333331" y2="5" style="visibility: inherit;" fill="rgb(0, 0, 0)" stroke="rgb(204, 204, 204)" stroke-width="1px"></line><line x1="193.2421875" y1="0" x2="193.2421875" y2="5" style="visibility: inherit;" fill="rgb(0, 0, 0)" stroke="rgb(204, 204, 204)" stroke-width="1px"></line><line x1="214.71354166666669" y1="0" x2="214.71354166666669" y2="5" style="visibility: inherit;" fill="rgb(0, 0, 0)" stroke="rgb(204, 204, 204)" stroke-width="1px"></line><line x1="236.18489583333331" y1="0" x2="236.18489583333331" y2="5" style="visibility: inherit;" fill="rgb(0, 0, 0)" stroke="rgb(204, 204, 204)" stroke-width="1px"></line><line x1="257.65625" y1="0" x2="257.65625" y2="5" style="visibility: inherit;" fill="rgb(0, 0, 0)" stroke="rgb(204, 204, 204)" stroke-width="1px"></line></g><g transform="translate(0, 8)"><text x="0" y="0" dx="0em" dy="0.95em" style="text-anchor: middle; visibility: hidden; font-family: Roboto, sans-serif; font-size: 12px; font-weight: 200;" fill="rgb(50, 49, 63)" stroke="none" stroke-width="1px">-1k</text><text x="21.471354166666664" y="0" dx="0em" dy="0.95em" style="text-anchor: middle; visibility: inherit; font-family: Roboto, sans-serif; font-size: 12px; font-weight: 200;" fill="rgb(50, 49, 63)" stroke="none" stroke-width="1px">0</text><text x="42.94270833333333" y="0" dx="0em" dy="0.95em" style="text-anchor: middle; visibility: hidden; font-family: Roboto, sans-serif; font-size: 12px; font-weight: 200;" fill="rgb(50, 49, 63)" stroke="none" stroke-width="1px">1k</text><text x="64.4140625" y="0" dx="0em" dy="0.95em" style="text-anchor: middle; visibility: inherit; font-family: Roboto, sans-serif; font-size: 12px; font-weight: 200;" fill="rgb(50, 49, 63)" stroke="none" stroke-width="1px">2k</text><text x="85.88541666666666" y="0" dx="0em" dy="0.95em" style="text-anchor: middle; visibility: hidden; font-family: Roboto, sans-serif; font-size: 12px; font-weight: 200;" fill="rgb(50, 49, 63)" stroke="none" stroke-width="1px">3k</text><text x="107.35677083333334" y="0" dx="0em" dy="0.95em" style="text-anchor: middle; visibility: inherit; font-family: Roboto, sans-serif; font-size: 12px; font-weight: 200;" fill="rgb(50, 49, 63)" stroke="none" stroke-width="1px">4k</text><text x="128.828125" y="0" dx="0em" dy="0.95em" style="text-anchor: middle; visibility: hidden; font-family: Roboto, sans-serif; font-size: 12px; font-weight: 200;" fill="rgb(50, 49, 63)" stroke="none" stroke-width="1px">5k</text><text x="150.29947916666669" y="0" dx="0em" dy="0.95em" style="text-anchor: middle; visibility: inherit; font-family: Roboto, sans-serif; font-size: 12px; font-weight: 200;" fill="rgb(50, 49, 63)" stroke="none" stroke-width="1px">6k</text><text x="171.77083333333331" y="0" dx="0em" dy="0.95em" style="text-anchor: middle; visibility: hidden; font-family: Roboto, sans-serif; font-size: 12px; font-weight: 200;" fill="rgb(50, 49, 63)" stroke="none" stroke-width="1px">7k</text><text x="193.2421875" y="0" dx="0em" dy="0.95em" style="text-anchor: middle; visibility: inherit; font-family: Roboto, sans-serif; font-size: 12px; font-weight: 200;" fill="rgb(50, 49, 63)" stroke="none" stroke-width="1px">8k</text><text x="214.71354166666669" y="0" dx="0em" dy="0.95em" style="text-anchor: middle; visibility: hidden; font-family: Roboto, sans-serif; font-size: 12px; font-weight: 200;" fill="rgb(50, 49, 63)" stroke="none" stroke-width="1px">9k</text><text x="236.18489583333331" y="0" dx="0em" dy="0.95em" style="text-anchor: middle; visibility: inherit; font-family: Roboto, sans-serif; font-size: 12px; font-weight: 200;" fill="rgb(50, 49, 63)" stroke="none" stroke-width="1px">10k</text><text x="257.65625" y="0" dx="0em" dy="0.95em" style="text-anchor: middle; visibility: hidden; font-family: Roboto, sans-serif; font-size: 12px; font-weight: 200;" fill="rgb(50, 49, 63)" stroke="none" stroke-width="1px">11k</text></g><line x1="0" y1="0" x2="257.65625" y2="0" fill="rgb(0, 0, 0)" stroke="rgb(204, 204, 204)" stroke-width="1px"></line></g></g></g></g></svg>