<svg viewBox="0 0 330 200" xmlns="http://www.w3.org/2000/svg"><g><g><g><g><g><line x1="41.171875" y1="178" x2="36.171875" y2="178" style="visibility: inherit;" fill="rgb(0, 0, 0)" stroke="rgb(204, 204, 204)" stroke-width="1px"></line><line x1="41.171875" y1="155.75" x2="36.171875" y2="155.75" style="visibility: inherit;" fill="rgb(0, 0, 0)" stroke="rgb(204, 204, 204)" stroke-width="1px"></line><line x1="41.171875" y1="133.5" x2="36.171875" y2="133.5" style="visibility: inherit;" fill="rgb(0, 0, 0)" stroke="rgb(204, 204, 204)" stroke-width="1px"></line><line x1="41.171875" y1="111.25" x2="36.171875" y2="111.25" style="visibility: inherit;" fill="rgb(0, 0, 0)" stroke="rgb(204, 204, 204)" stroke-width="1px"></line><line x1="41.171875" y1="89" x2="36.171875" y2="89" style="visibility: inherit;" fill="rgb(0, 0, 0)" stroke="rgb(204, 204, 204)" stroke-width="1px"></line><line x1="41.171875" y1="66.75" x2="36.171875" y2="66.75" style="visibility: inherit;" fill="rgb(0, 0, 0)" stroke="rgb(204, 204, 204)" stroke-width="1px"></line><line x1="41.171875" y1="44.5" x2="36.171875" y2="44.5" style="visibility: inherit;" fill="rgb(0, 0, 0)" stroke="rgb(204, 204, 204)" stroke-width="1px"></line><line x1="41.171875" y1="22.25" x2="36.171875" y2="22.25" style="visibility: inherit;" fill="rgb(0, 0, 0)" stroke="rgb(204, 204, 204)" stroke-width="1px"></line><line x1="41.171875" y1="0" x2="36.171875" y2="0" style="visibility: inherit;" fill="rgb(0, 0, 0)" stroke="rgb(204, 204, 204)" stroke-width="1px"></line></g><g transform="translate(31.171875, 0)"><text x="0" y="178" dx="0em" dy="0.3em" style="text-anchor: end; visibility: hidden; font-family: Roboto, sans-serif; font-size: 12px; font-weight: 200;" fill="rgb(50, 49, 63)" stroke="none" stroke-width="1px">75</text><text x="0" y="155.75" dx="0em" dy="0.3em" style="text-anchor: end; visibility: inherit; font-family: Roboto, sans-serif; font-size: 12px; font-weight: 200;" fill="rgb(50, 49, 63)" stroke="none" stroke-width="1px">80</text><text x="0" y="133.5" dx="0em" dy="0.3em" style="text-anchor: end; visibility: hidden; font-family: Roboto, sans-serif; font-size: 12px; font-weight: 200;" fill="rgb(50, 49, 63)" stroke="none" stroke-width="1px">85</text><text x="0" y="111.25" dx="0em" dy="0.3em" style="text-anchor: end; visibility: inherit; font-family: Roboto, sans-serif; font-size: 12px; font-weight: 200;" fill="rgb(50, 49, 63)" stroke="none" stroke-width="1px">90</text><text x="0" y="89" dx="0em" dy="0.3em" style="text-anchor: end; visibility: hidden; font-family: Roboto, sans-serif; font-size: 12px; font-weight: 200;" fill="rgb(50, 49, 63)" stroke="none" stroke-width="1px">95</text><text x="0" y="66.75" dx="0em" dy="0.3em" style="text-anchor: end; visibility: inherit; font-family: Roboto, sans-serif; font-size: 12px; font-weight: 200;" fill="rgb(50, 49, 63)" stroke="none" stroke-width="1px">100</text><text x="0" y="44.5" dx="0em" dy="0.3em" style="text-anchor: end; visibility: hidden; font-family: Roboto, sans-serif; font-size: 12px; font-weight: 200;" fill="rgb(50, 49, 63)" stroke="none" stroke-width="1px">105</text><text x="0" y="22.25" dx="0em" dy="0.3em" style="text-anchor: end; visibility: inherit; font-family: Roboto, sans-serif; font-size: 12px; font-weight: 200;" fill="rgb(50, 49, 63)" stroke="none" stroke-width="1px">110</text><text x="0" y="0" dx="0em" dy="0.3em" style="text-anchor: end; visibility: hidden; font-family: Roboto, sans-serif; font-size: 12px; font-weight: 200;" fill="rgb(50, 49, 63)" stroke="none" stroke-width="1px">115</text></g><line x1="41.171875" y1="0" x2="41.171875" y2="178" fill="rgb(0, 0, 0)" stroke="rgb(204, 204, 204)" stroke-width="1px"></line></g></g><g transform="translate(41, 0)" clip-path="url(#clip_0)"><clipPath id="clip_0"><rect width="288" height="178"></rect></clipPath><g><g><g><line x1="0" y1="0" x2="0" y2="178" fill="rgb(0, 0, 0)" stroke="rgb(60, 60, 60)" stroke-width="1px" opacity="0.25"></line><line x1="24.069010416666664" y1="0" x2="24.069010416666664" y2="178" fill="rgb(0, 0, 0)" stroke="rgb(60, 60, 60)" stroke-width="1px" opacity="0.25"></line><line x1="48.13802083333333" y1="0" x2="48.13802083333333" y2="178" fill="rgb(0, 0, 0)" stroke="rgb(60, 60, 60)" stroke-width="1px" opacity="0.25"></line><line x1="72.20703125" y1="0" x2="72.20703125" y2="178" fill="rgb(0, 0, 0)" stroke="rgb(60, 60, 60)" stroke-width="1px" opacity="0.25"></line><line x1="96.27604166666666" y1="0" x2="96.27604166666666" y2="178" fill="rgb(0, 0, 0)" stroke="rgb(60, 60, 60)" stroke-width="1px" opacity="0.25"></line><line x1="120.34505208333334" y1="0" x2="120.34505208333334" y2="178" fill="rgb(0, 0, 0)" stroke="rgb(60, 60, 60)" stroke-width="1px" opacity="0.25"></line><line x1="144.4140625" y1="0" x2="144.4140625" y2="178" fill="rgb(0, 0, 0)" stroke="rgb(60, 60, 60)" stroke-width="1px" opacity="0.25"></line><line x1="168.48307291666669" y1="0" x2="168.48307291666669" y2="178" fill="rgb(0, 0, 0)" stroke="rgb(60, 60, 60)" stroke-width="1px" opacity="0.25"></line><line x1="192.55208333333331" y1="0" x2="192.55208333333331" y2="178" fill="rgb(0, 0, 0)" stroke="rgb(60, 60, 60)" stroke-width="1px" opacity="0.25"></line><line x1="216.62109375" y1="0" x2="216.62109375" y2="178" fill="rgb(0, 0, 0)" stroke="rgb(60, 60, 60)" stroke-width="1px" opacity="0.25"></line><line x1="240.69010416666669" y1="0" x2="240.69010416666669" y2="178" fill="rgb(0, 0, 0)" stroke="rgb(60, 60, 60)" stroke-width="1px" opacity="0.25"></line><line x1="264.7591145833333" y1="0" x2="264.7591145833333" y2="178" fill="rgb(0, 0, 0)" stroke="rgb(60, 60, 60)" stroke-width="1px" opacity="0.25"></line><line x1="288.828125" y1="0" x2="288.828125" y2="178" fill="rgb(0, 0, 0)" stroke="rgb(60, 60, 60)" stroke-width="1px" opacity="0.25"></line></g><g><line x1="0" y1="178" x2="288.828125" y2="178" fill="rgb(0, 0, 0)" stroke="rgb(60, 60, 60)" stroke-width="1px" opacity="0.25"></line><line x1="0" y1="155.75" x2="288.828125" y2="155.75" fill="rgb(0, 0, 0)" stroke="rgb(60, 60, 60)" stroke-width="1px" opacity="0.25"></line><line x1="0" y1="133.5" x2="288.828125" y2="133.5" fill="rgb(0, 0, 0)" stroke="rgb(60, 60, 60)" stroke-width="1px" opacity="0.25"></line><line x1="0" y1="111.25" x2="288.828125" y2="111.25" fill="rgb(0, 0, 0)" stroke="rgb(60, 60, 60)" stroke-width="1px" opacity="0.25"></line><line x1="0" y1="89" x2="288.828125" y2="89" fill="rgb(0, 0, 0)" stroke="rgb(60, 60, 60)" stroke-width="1px" opacity="0.25"></line><line x1="0" y1="66.75" x2="288.828125" y2="66.75" fill="rgb(0, 0, 0)" stroke="rgb(60, 60, 60)" stroke-width="1px" opacity="0.25"></line><line x1="0" y1="44.5" x2="288.828125" y2="44.5" fill="rgb(0, 0, 0)" stroke="rgb(60, 60, 60)" stroke-width="1px" opacity="0.25"></line><line x1="0" y1="22.25" x2="288.828125" y2="22.25" fill="rgb(0, 0, 0)" stroke="rgb(60, 60, 60)" stroke-width="1px" opacity="0.25"></line><line x1="0" y1="0" x2="288.828125" y2="0" fill="rgb(0, 0, 0)" stroke="rgb(60, 60, 60)" stroke-width="1px" opacity="0.25"></line></g></g></g><g><g><line x1="0" y1="511.75" x2="288.828125" y2="511.75" fill="rgb(0, 0, 0)" stroke="rgb(153, 153, 153)" stroke-width="1.5px"></line></g></g><g><g><line x1="24.069010416666664" y1="0" x2="24.069010416666664" y2="178" fill="rgb(0, 0, 0)" stroke="rgb(153, 153, 153)" stroke-width="1.5px"></line></g></g><g><g><g><g><g><path stroke="rgb(238, 51, 119)" stroke-width="2px" d="M26.45184244791667,-534.4409530639648L27.65529296875,1.8622016906738281L28.858743489583333,16.840991592407217L30.06219401041667,10.120361709594734L31.26564453125,28.95392608642578L32.46909505208333,25.18956260681152L33.67254557291667,22.840234756469727L34.87599609375,28.778604125976553L36.07944661458333,27.655986785888672L37.28289713541667,28.55911216735839L38.486347656250004,30.506190872192374L39.68979817708333,39.93259811401367L40.89324869791667,37.9428092956543L42.09669921875,37.374201202392584L43.30014973958333,46.16253700256348L44.50360026041666,35.87534103393554L45.707050781250004,35.621253204345706L46.91050130208333,36.09089469909668L48.11395182291667,41.94235000610351L49.317402343750004,36.89997634887695L50.52085286458333,37.71679878234863L51.72430338541667,36.74882736206055L52.92775390625,49.729816055297846L54.13120442708333,54.377647399902344L55.33465494791667,51.98357238769532L56.538105468750004,61.526464843750006L57.74155598958333,53.439960098266596L58.94500651041667,50.41698036193847L60.14845703125,47.6832275390625L61.35190755208333,56.187598800659174L62.55535807291666,64.41133270263671L63.758808593750004,64.87061920166016L64.96225911458333,58.495167160034185L66.16570963541666,54.96645622253418L67.36916015625,52.72947158813477L68.57261067708333,47.79261703491211L69.77606119791668,54.55565147399902L70.97951171875,50.04223136901855L72.18296223958333,61.82319488525391L73.38641276041666,51.45777626037598L74.58986328124999,68.82958869934082L75.79331380208333,59.971857452392584L76.99676432291666,49.006494140624994L78.20021484375,65.52929878234863L79.40366536458333,51.71610794067382L80.60711588541668,60.70875968933106L81.81056640625,62.548859405517575L83.01401692708333,70.68218231201172L84.21746744791668,69.5812255859375L85.42091796875,70.73314247131347L86.62436848958333,64.29043388366699L87.82781901041666,63.72610359191894L89.03126953125,67.51284065246583L90.23472005208333,68.60072631835938L91.43817057291666,71.79553108215332L92.64162109374999,75.7095157623291L93.84507161458333,76.91103477478028L95.04852213541666,56.854833984375006L96.25197265625,71.21225624084472L97.45542317708333,74.78513717651367L98.65887369791668,64.81982879638672L99.86232421875,75.77500686645507L101.06577473958333,64.57653732299805L102.26922526041668,76.56225814819337L103.47267578125,76.96464309692382L104.67612630208333,72.91950645446778L105.87957682291666,65.64347534179687L107.08302734375,75.30842094421386L108.28647786458333,77.00039329528809L109.48992838541666,93.91821556091308L110.69337890624999,103.21136589050293L111.89682942708333,92.49105949401856L113.10027994791666,101.24106483459472L114.30373046875,98.88742523193359L115.50718098958333,95.55915985107421L116.71063151041668,93.26527366638183L117.91408203125,106.92439575195313L119.11753255208333,98.22959442138672L120.32098307291668,105.97506332397461L121.52443359375,108.04015502929687L122.72788411458333,104.1955997467041L123.93133463541666,101.05942802429199L125.13478515625,101.07966270446778L126.33823567708333,98.99752769470214L127.54168619791666,104.5327651977539L128.74513671875,104.92398033142089L129.94858723958333,108.56897277832032L131.15203776041668,114.8163963317871L132.35548828125,111.17717552185059L133.55893880208333,114.46660118103027L134.76238932291668,104.8427360534668L135.96583984375,113.23242149353027L137.16929036458333,105.53533248901367L138.37274088541668,107.08070526123046L139.57619140625,114.7061580657959L140.77964192708333,101.73297805786133L141.98309244791668,113.05200691223145L143.18654296875002,114.96061935424805L144.38999348958333,109.34702339172364L145.59344401041668,106.50007858276368L146.79689453125,113.94365692138672L148.00034505208333,119.51152114868164L149.20379557291665,107.87162322998047L150.40724609375002,105.80171051025391L151.61069661458333,115.24624748229981L152.81414713541668,111.97060585021973L154.01759765625,112.1563507080078L155.22104817708333,116.56954803466797L156.42449869791665,102.56721725463868L157.62794921875,117.60504760742188L158.83139973958336,118.26135063171387L160.03485026041668,118.79152641296386L161.23830078125002,112.8670768737793L162.44175130208333,115.90455360412598L163.64520182291668,115.45718383789062L164.84865234375,120.35020790100097L166.05210286458333,122.63818664550782L167.25555338541665,122.19954223632813L168.45900390625002,121.37022590637207L169.66245442708333,112.95409278869629L170.86590494791668,123.94610748291015L172.06935546875,129.5334255218506L173.27280598958333,117.26873092651367L174.47625651041665,122.07840576171876L175.67970703125,121.33909301757812L176.88315755208336,115.45273628234864L178.08660807291668,116.4874210357666L179.29005859375002,127.1057731628418L180.49350911458333,120.2890625L181.69695963541668,121.95438346862792L182.90041015625,130.09490394592285L184.10386067708333,123.74118041992188L185.30731119791665,124.71570434570313L186.51076171875002,126.90335845947266L187.71421223958333,129.8030288696289L188.91766276041668,123.12263069152831L190.12111328125,119.93505744934082L191.32456380208333,131.62279205322264L192.52801432291665,135.14912643432618L193.73146484375,136.14948692321778L194.93491536458336,141.38938636779787L196.13836588541668,143.6923713684082L197.34181640625002,134.6863090515137L198.54526692708333,140.65228042602538L199.74871744791668,134.34225158691405L200.95216796875,145.08163833618164L202.15561848958333,144.66095390319825L203.35906901041665,141.65752983093262L204.56251953125002,140.49223632812502L205.76597005208333,143.9374282836914L206.96942057291668,148.35836639404297L208.17287109375,145.6206413269043L209.37632161458333,135.42511253356932L210.57977213541665,143.38640670776365L211.78322265625,144.76562423706056L212.98667317708336,146.0796901702881L214.19012369791668,148.22280082702636L215.39357421875002,144.59709243774412L216.59702473958333,146.49113998413085L217.80047526041668,149.68455276489257L219.00392578125,148.87540321350096L220.20737630208333,147.61348571777344L221.41082682291665,151.69943122863768L222.61427734375002,146.1607307434082L223.81772786458333,150.78272552490236L225.02117838541668,150.81996955871583L226.22462890625,147.9305522918701L227.42807942708333,149.24556884765624L228.63152994791665,144.78735275268556L229.83498046875,152.6884521484375L231.03843098958336,143.10366439819336L232.24188151041668,151.02832565307617L233.44533203125002,153.89282302856444L234.64878255208333,149.62900924682617L235.85223307291668,158.11895141601562L237.05568359375,153.10645446777343L238.25913411458333,147.66885948181152L239.46258463541665,152.86825561523438L240.66603515625002,147.83586349487305L241.86948567708333,144.75445442199705L243.07293619791668,149.5711910247803L244.27638671875,151.678076171875L245.47983723958333,153.62603759765625L246.68328776041665,154.56175575256347L247.88673828125,154.34912185668944L249.09018880208336,148.10322608947754L250.29363932291668,147.99556808471678L251.49708984375002,152.086674118042L252.70054036458333,155.68124961853027L253.90399088541668,155.09003028869628L255.10744140625,156.23570022583007L256.31089192708333,155.37294235229493L257.51434244791665,159.10087661743162L258.71779296875,154.8878532409668L259.92124348958333,156.08275184631347L261.12469401041665,152.2572090148926L262.32814453125,148.48130226135254L263.53159505208333,146.84887962341307L264.73504557291665,156.72917518615722" style="fill: none;" fill="none"></path></g><g><path stroke="rgb(51, 187, 238)" stroke-width="2px" d="M26.45184244791667,-490.5071166992187L27.65529296875,0.2783966064453125L28.858743489583333,18.827283477783194L30.06219401041667,32.17276802062989L31.26564453125,18.41131820678712L32.46909505208333,36.975007629394526L33.67254557291667,36.09744720458984L34.87599609375,32.555902862548834L36.07944661458333,27.68796844482422L37.28289713541667,47.50359382629395L38.486347656250004,33.16796798706055L39.68979817708333,32.455646133422846L40.89324869791667,46.06564140319824L42.09669921875,43.12736892700195L43.30014973958333,42.04009437561035L44.50360026041666,43.26931724548339L45.707050781250004,42.91473503112793L46.91050130208333,46.783836746215826L48.11395182291667,48.809172058105474L49.317402343750004,40.53875579833985L50.52085286458333,54.66361503601074L51.72430338541667,46.104243469238284L52.92775390625,52.20693473815918L54.13120442708333,43.07009391784668L55.33465494791667,61.31369514465332L56.538105468750004,60.02431144714356L57.74155598958333,42.210357666015625L58.94500651041667,49.147865295410156L60.14845703125,55.35919914245605L61.35190755208333,59.24106636047364L62.55535807291666,70.53249320983886L63.758808593750004,55.905976867675776L64.96225911458333,59.43356742858887L66.16570963541666,71.19032402038575L67.36916015625,62.797752761840826L68.57261067708333,60.84401969909668L69.77606119791668,61.49305725097656L70.97951171875,59.86756057739258L72.18296223958333,53.2100112915039L73.38641276041666,65.72981224060058L74.58986328124999,66.37650718688965L75.79331380208333,44.75717735290527L76.99676432291666,60.90356941223145L78.20021484375,56.68491020202637L79.40366536458333,64.34302368164063L80.60711588541668,72.9765438079834L81.81056640625,63.47955284118652L83.01401692708333,64.09314575195313L84.21746744791668,60.90530090332031L85.42091796875,73.53530616760254L86.62436848958333,70.20025062561035L87.82781901041666,68.11604461669921L89.03126953125,75.27487754821777L90.23472005208333,66.44186248779297L91.43817057291666,60.398517227172846L92.64162109374999,66.2840591430664L93.84507161458333,76.94576644897461L95.04852213541666,68.82327384948731L96.25197265625,71.66682357788086L97.45542317708333,76.46977615356445L98.65887369791668,70.81666145324706L99.86232421875,79.53699378967285L101.06577473958333,67.3314754486084L102.26922526041668,76.76243209838867L103.47267578125,87.41103439331054L104.67612630208333,70.4595329284668L105.87957682291666,79.86135978698731L107.08302734375,85.63062019348145L108.28647786458333,85.4586254119873L109.48992838541666,93.77263450622559L110.69337890624999,94.19172325134278L111.89682942708333,89.57095069885254L113.10027994791666,102.62130088806153L114.30373046875,97.45650062561035L115.50718098958333,89.99275550842285L116.71063151041668,95.52578620910644L117.91408203125,98.18742752075195L119.11753255208333,94.1391674041748L120.32098307291668,94.9701473236084L121.52443359375,102.1240234375L122.72788411458333,102.43267021179199L123.93133463541666,107.20747756958008L125.13478515625,104.24924201965332L126.33823567708333,107.36741981506347L127.54168619791666,100.22552833557128L128.74513671875,102.3230770111084L129.94858723958333,100.06765708923339L131.15203776041668,111.21455535888671L132.35548828125,103.58743896484376L133.55893880208333,106.67533264160156L134.76238932291668,112.29945335388183L135.96583984375,110.70834884643554L137.16929036458333,103.4434196472168L138.37274088541668,109.75188674926758L139.57619140625,104.75826644897461L140.77964192708333,106.37615814208985L141.98309244791668,105.05628662109375L143.18654296875002,111.8375186920166L144.38999348958333,102.94733047485352L145.59344401041668,110.67680854797364L146.79689453125,114.77989921569824L148.00034505208333,109.45081100463867L149.20379557291665,108.37307662963867L150.40724609375002,107.49296989440919L151.61069661458333,108.5439510345459L152.81414713541668,113.29977989196777L154.01759765625,104.64436149597168L155.22104817708333,111.82207107543945L156.42449869791665,114.05973472595215L157.62794921875,118.58921356201172L158.83139973958336,111.9198154449463L160.03485026041668,108.91897163391113L161.23830078125002,108.6438003540039L162.44175130208333,109.75830345153808L163.64520182291668,111.0070140838623L164.84865234375,119.91122398376464L166.05210286458333,119.84946746826172L167.25555338541665,117.72604827880859L168.45900390625002,108.92874946594239L169.66245442708333,115.3180534362793L170.86590494791668,121.49665870666504L172.06935546875,117.58134994506835L173.27280598958333,117.3851821899414L174.47625651041665,120.71721611022949L175.67970703125,107.0537483215332L176.88315755208336,115.09543800354004L178.08660807291668,128.12497634887697L179.29005859375002,117.73002052307129L180.49350911458333,131.52623596191407L181.69695963541668,113.27550506591797L182.90041015625,121.14136352539063L184.10386067708333,130.43128852844237L185.30731119791665,123.68974494934082L186.51076171875002,118.28874893188477L187.71421223958333,130.41360015869142L188.91766276041668,120.32878494262695L190.12111328125,126.03778266906738L191.32456380208333,127.79932022094727L192.52801432291665,135.61992225646972L193.73146484375,136.8728427886963L194.93491536458336,140.98106002807617L196.13836588541668,137.12207565307617L197.34181640625002,133.37366905212403L198.54526692708333,136.51652908325195L199.74871744791668,133.20914344787596L200.95216796875,139.61919136047365L202.15561848958333,144.85467720031738L203.35906901041665,135.83676605224608L204.56251953125002,134.4117488861084L205.76597005208333,133.6914825439453L206.96942057291668,142.9181911468506L208.17287109375,136.77598114013674L209.37632161458333,131.67663803100587L210.57977213541665,137.7044677734375L211.78322265625,142.47313003540037L212.98667317708336,134.96939086914062L214.19012369791668,137.98670082092283L215.39357421875002,140.0373634338379L216.59702473958333,140.47563438415526L217.80047526041668,139.70294799804688L219.00392578125,141.98654708862304L220.20737630208333,143.13564605712892L221.41082682291665,145.58197135925295L222.61427734375002,140.32957801818847L223.81772786458333,136.0443412780762L225.02117838541668,143.09076309204102L226.22462890625,144.77815208435058L227.42807942708333,145.92382202148437L228.63152994791665,139.93578262329103L229.83498046875,139.8025936126709L231.03843098958336,146.94047889709472L232.24188151041668,142.12873306274415L233.44533203125002,143.4053512573242L234.64878255208333,150.14003677368166L235.85223307291668,150.51183204650877L237.05568359375,147.5663959503174L238.25913411458333,140.80726585388183L239.46258463541665,143.83252029418944L240.66603515625002,139.99139404296875L241.86948567708333,145.96520805358887L243.07293619791668,142.90284538269043L244.27638671875,150.28796043395997L245.47983723958333,150.24857749938965L246.68328776041665,152.55169830322265L247.88673828125,146.9771797180176L249.09018880208336,145.25862388610838L250.29363932291668,149.00852432250977L251.49708984375002,152.5119758605957L252.70054036458333,146.87539520263672L253.90399088541668,151.54811248779296L255.10744140625,153.17337150573732L256.31089192708333,152.72410049438477L257.51434244791665,146.6179801940918L258.71779296875,156.76984825134278L259.92124348958333,153.7974552154541L261.12469401041665,148.00527801513672L262.32814453125,149.06956787109377L263.53159505208333,140.92962455749512L264.73504557291665,144.36629486083984" style="fill: none;" fill="none"></path></g><g><path stroke="rgb(204, 51, 17)" stroke-width="2px" d="M27.65529296875,-3.283212661743164L28.858743489583333,16.279716873168955L30.06219401041667,25.046901321411124L31.26564453125,40.94748954772949L32.46909505208333,34.25853576660157L33.67254557291667,30.493153762817386L34.87599609375,32.502769851684576L36.07944661458333,30.340918350219724L37.28289713541667,27.376164245605466L38.486347656250004,30.20239906311035L39.68979817708333,30.095793533325192L40.89324869791667,33.51996994018555L42.09669921875,29.94182662963867L43.30014973958333,33.1242733001709L44.50360026041666,33.24534187316894L45.707050781250004,36.06960754394531L46.91050130208333,46.7628890991211L48.11395182291667,51.199851989746094L49.317402343750004,39.53438911437988L50.52085286458333,49.47009239196777L51.72430338541667,43.43900337219239L52.92775390625,45.25038070678711L54.13120442708333,44.54902496337891L55.33465494791667,56.88505020141602L56.538105468750004,59.02405281066895L57.74155598958333,46.801049804687494L58.94500651041667,44.62612724304199L60.14845703125,52.11723670959472L61.35190755208333,47.746477890014646L62.55535807291666,59.98309516906738L63.758808593750004,54.111099624633795L64.96225911458333,51.4708812713623L66.16570963541666,40.74853782653808L67.36916015625,36.500477218627935L68.57261067708333,48.10537185668946L69.77606119791668,46.05864753723145L70.97951171875,50.830908584594724L72.18296223958333,44.387928390502935L73.38641276041666,43.92045974731445L74.58986328124999,60.42187538146973L75.79331380208333,55.992890930175776L76.99676432291666,59.06951293945312L78.20021484375,54.27335052490234L79.40366536458333,61.92168617248535L80.60711588541668,65.9729679107666L81.81056640625,54.877980422973636L83.01401692708333,64.49498748779297L84.21746744791668,59.69797630310059L85.42091796875,60.669512557983396L86.62436848958333,65.00951194763184L87.82781901041666,66.71469116210938L89.03126953125,67.84358940124511L90.23472005208333,60.825652313232425L91.43817057291666,66.67327117919922L92.64162109374999,66.56714096069337L93.84507161458333,64.3337890625L95.04852213541666,62.476951599121094L96.25197265625,67.27083930969238L97.45542317708333,75.85380668640137L98.65887369791668,66.96714935302734L99.86232421875,66.7416820526123L101.06577473958333,62.43284950256347L102.26922526041668,67.05878257751465L103.47267578125,75.37000770568848L104.67612630208333,71.49543991088868L105.87957682291666,73.44160194396973L107.08302734375,75.41635055541992L108.28647786458333,72.91594161987305L109.48992838541666,87.27336387634277L110.69337890624999,92.5631031036377L111.89682942708333,81.43803520202637L113.10027994791666,89.74617080688476L114.30373046875,85.78139572143554L115.50718098958333,80.95389671325684L116.71063151041668,88.61384353637695L117.91408203125,89.48362922668457L119.11753255208333,83.43006477355956L120.32098307291668,88.13147048950195L121.52443359375,83.52037391662597L122.72788411458333,88.9630615234375L123.93133463541666,91.82029342651367L125.13478515625,96.6815055847168L126.33823567708333,92.63674240112304L127.54168619791666,89.43402709960938L128.74513671875,91.0220760345459L129.94858723958333,94.46808280944825L131.15203776041668,89.64452209472657L132.35548828125,90.55864753723145L133.55893880208333,94.19895477294922L134.76238932291668,101.27871627807617L135.96583984375,96.76933631896972L137.16929036458333,90.73671951293946L138.37274088541668,93.33847160339356L139.57619140625,94.28926391601563L140.77964192708333,93.1635570526123L141.98309244791668,97.4181022644043L143.18654296875002,102.5147632598877L144.38999348958333,90.57053031921387L145.59344401041668,95.34177284240722L146.79689453125,101.42826957702637L148.00034505208333,101.82708969116212L149.20379557291665,94.39790649414063L150.40724609375002,95.94582557678223L151.61069661458333,96.9243896484375L152.81414713541668,99.63362998962403L154.01759765625,99.6112564086914L155.22104817708333,93.60318603515626L156.42449869791665,90.72205276489258L157.62794921875,100.18176574707032L158.83139973958336,103.32493133544922L160.03485026041668,103.05138969421387L161.23830078125002,106.8177562713623L162.44175130208333,96.1607681274414L163.64520182291668,102.95816078186036L164.84865234375,105.80164260864258L166.05210286458333,103.64529113769531L167.25555338541665,105.7249137878418L168.45900390625002,99.93806686401368L169.66245442708333,109.17587738037109L170.86590494791668,104.14898529052735L172.06935546875,104.55371284484863L173.27280598958333,111.50517425537109L174.47625651041665,107.06226997375488L175.67970703125,112.24937591552734L176.88315755208336,105.52467193603516L178.08660807291668,110.57780799865722L179.29005859375002,105.60741004943847L180.49350911458333,118.6628189086914L181.69695963541668,108.78832893371582L182.90041015625,107.46703147888184L184.10386067708333,108.94718475341797L185.30731119791665,112.71698036193848L186.51076171875002,121.07736625671387L187.71421223958333,119.92134132385254L188.91766276041668,117.26245002746582L190.12111328125,113.12649497985839L191.32456380208333,116.70025863647462L192.52801432291665,126.01625785827636L193.73146484375,114.40155143737793L194.93491536458336,132.53644218444825L196.13836588541668,130.80685234069824L197.34181640625002,126.44118614196778L198.54526692708333,129.47526779174805L199.74871744791668,124.38237533569335L200.95216796875,137.79070281982422L202.15561848958333,126.59756355285644L203.35906901041665,135.67950592041015L204.56251953125002,131.77251510620115L205.76597005208333,135.0429962158203L206.96942057291668,134.02131462097168L208.17287109375,138.5698398590088L209.37632161458333,119.0922966003418L210.57977213541665,127.83843154907227L211.78322265625,133.1244022369385L212.98667317708336,126.67758560180664L214.19012369791668,133.5908863067627L215.39357421875002,129.34584732055666L216.59702473958333,128.37128944396974L217.80047526041668,133.68669548034669L219.00392578125,132.78156700134278L220.20737630208333,136.65039710998533L221.41082682291665,133.13465538024903L222.61427734375002,136.90204048156738L223.81772786458333,132.34760780334474L225.02117838541668,132.51145439147948L226.22462890625,137.5393310546875L227.42807942708333,136.25419120788573L228.63152994791665,134.44240646362303L229.83498046875,138.01053428649902L231.03843098958336,134.6134506225586L232.24188151041668,134.62119140625L233.44533203125002,133.3624313354492L234.64878255208333,133.80599861145018L235.85223307291668,139.01914482116698L237.05568359375,138.02788314819335L238.25913411458333,133.5715343475342L239.46258463541665,137.1729679107666L240.66603515625002,136.98508415222167L241.86948567708333,140.36957206726075L243.07293619791668,139.1433708190918L244.27638671875,135.74812049865724L245.47983723958333,140.7075183868408L246.68328776041665,141.24526519775392L247.88673828125,143.32478599548338L249.09018880208336,141.30994148254396L250.29363932291668,134.70946350097657L251.49708984375002,139.43035697937012L252.70054036458333,146.10603599548338L253.90399088541668,140.28924446105955L255.10744140625,143.3104248046875L256.31089192708333,138.91943130493163L257.51434244791665,140.92117080688476L258.71779296875,136.77737312316893L259.92124348958333,151.89994468688965L261.12469401041665,136.19582977294922L262.32814453125,135.2312194824219L263.53159505208333,135.04333572387694L264.73504557291665,145.39133758544924" style="fill: none;" fill="none"></path></g><g><path stroke="rgb(0, 119, 187)" stroke-width="2px" d="M27.65529296875,-39.05646362304688L28.858743489583333,18.113943099975586L30.06219401041667,24.18848915100098L31.26564453125,41.64792861938477L32.46909505208333,27.363195037841788L33.67254557291667,15.427347946166988L34.87599609375,32.24491348266602L36.07944661458333,30.93047409057617L37.28289713541667,36.33085899353027L38.486347656250004,36.593162918090826L39.68979817708333,41.5570083618164L40.89324869791667,41.68296585083007L42.09669921875,38.27416915893555L43.30014973958333,43.671158981323245L44.50360026041666,41.3159236907959L45.707050781250004,40.46756095886231L46.91050130208333,45.355560302734375L48.11395182291667,51.81235847473144L49.317402343750004,28.886194229125977L50.52085286458333,46.76536750793457L51.72430338541667,46.185284042358404L52.92775390625,47.85131797790527L54.13120442708333,45.84326362609863L55.33465494791667,56.54387855529785L56.538105468750004,42.7930892944336L57.74155598958333,49.41030502319336L58.94500651041667,47.7624008178711L60.14845703125,55.10171623229981L61.35190755208333,54.51056480407715L62.55535807291666,56.40437469482421L63.758808593750004,57.167724609375L64.96225911458333,43.63904151916503L66.16570963541666,54.52146301269531L67.36916015625,63.9256664276123L68.57261067708333,56.55453910827637L69.77606119791668,45.894733047485346L70.97951171875,46.56943740844727L72.18296223958333,49.11805648803711L73.38641276041666,55.0000675201416L74.58986328124999,51.20426559448242L75.79331380208333,55.459829330444336L76.99676432291666,52.02736892700196L78.20021484375,53.9531265258789L79.40366536458333,48.57783126831055L80.60711588541668,60.22509651184082L81.81056640625,58.91001205444336L83.01401692708333,60.25918312072754L84.21746744791668,58.431034088134766L85.42091796875,57.27724990844726L86.62436848958333,60.907643508911136L87.82781901041666,63.9083854675293L89.03126953125,62.30105247497559L90.23472005208333,56.36794548034668L91.43817057291666,65.87288093566895L92.64162109374999,61.04157943725586L93.84507161458333,62.37265472412109L95.04852213541666,57.75714454650878L96.25197265625,56.25553436279297L97.45542317708333,71.28766098022462L98.65887369791668,65.9581314086914L99.86232421875,79.1104019165039L101.06577473958333,67.37944793701172L102.26922526041668,65.20024757385254L103.47267578125,64.92073059082031L104.67612630208333,72.71335716247559L105.87957682291666,68.11913414001465L107.08302734375,66.52915000915527L108.28647786458333,65.08994140625L109.48992838541666,78.77656364440918L110.69337890624999,88.32736663818359L111.89682942708333,89.93334159851074L113.10027994791666,92.65972709655762L114.30373046875,91.87244186401367L115.50718098958333,77.86213264465331L116.71063151041668,85.23410873413086L117.91408203125,96.24737663269043L119.11753255208333,95.01893463134766L120.32098307291668,91.34993896484374L121.52443359375,92.82000885009765L122.72788411458333,98.33776168823242L123.93133463541666,92.79396858215333L125.13478515625,86.46360321044922L126.33823567708333,95.67900619506835L127.54168619791666,93.4757007598877L128.74513671875,92.04983482360839L129.94858723958333,102.9574478149414L131.15203776041668,99.55445671081543L132.35548828125,94.45837287902832L133.55893880208333,93.34346237182618L134.76238932291668,89.82021751403809L135.96583984375,101.29042930603028L137.16929036458333,92.92478103637696L138.37274088541668,100.14109268188477L139.57619140625,97.89331169128418L140.77964192708333,104.40130767822265L141.98309244791668,96.59802055358887L143.18654296875002,98.8104248046875L144.38999348958333,94.23762474060058L145.59344401041668,101.5891284942627L146.79689453125,102.57142715454101L148.00034505208333,106.0942985534668L149.20379557291665,98.77484436035157L150.40724609375002,107.28274650573731L151.61069661458333,104.80525436401368L152.81414713541668,103.55246963500977L154.01759765625,98.82855453491212L155.22104817708333,104.60925636291503L156.42449869791665,99.60158042907715L157.62794921875,99.43990669250488L158.83139973958336,108.24599876403809L160.03485026041668,103.62400398254394L161.23830078125002,109.50139770507812L162.44175130208333,107.6067050933838L163.64520182291668,107.4932415008545L164.84865234375,100.5909408569336L166.05210286458333,105.69890747070312L167.25555338541665,108.9719009399414L168.45900390625002,110.47979202270508L169.66245442708333,112.48967971801758L170.86590494791668,104.3125602722168L172.06935546875,108.59351921081543L173.27280598958333,110.26580009460449L174.47625651041665,109.76947326660157L175.67970703125,113.10476646423339L176.88315755208336,107.90628700256347L178.08660807291668,112.47053146362305L179.29005859375002,109.48214759826661L180.49350911458333,117.85635147094726L181.69695963541668,99.21355667114258L182.90041015625,111.22558937072753L184.10386067708333,116.46104125976562L185.30731119791665,118.09584045410156L186.51076171875002,120.59343147277832L187.71421223958333,120.05395317077637L188.91766276041668,111.024125289917L190.12111328125,112.70669326782226L191.32456380208333,119.95050506591797L192.52801432291665,124.28985939025878L193.73146484375,121.83219451904297L194.93491536458336,125.08787307739257L196.13836588541668,133.16476974487304L197.34181640625002,118.84954833984375L198.54526692708333,131.24437637329103L199.74871744791668,135.2478893280029L200.95216796875,133.7392852783203L202.15561848958333,129.52941932678223L203.35906901041665,124.54645957946778L204.56251953125002,126.39718589782714L205.76597005208333,131.2129379272461L206.96942057291668,131.69157638549805L208.17287109375,127.1579216003418L209.37632161458333,120.99517135620117L210.57977213541665,132.60295181274412L211.78322265625,134.26538696289063L212.98667317708336,132.18216552734376L214.19012369791668,129.4109649658203L215.39357421875002,130.99477005004883L216.59702473958333,128.00417938232422L217.80047526041668,130.73195686340333L219.00392578125,131.13403625488283L220.20737630208333,133.67114601135253L221.41082682291665,130.44727935791016L222.61427734375002,131.43344841003417L223.81772786458333,131.7974349975586L225.02117838541668,133.83478889465331L226.22462890625,135.83561172485352L227.42807942708333,135.20986442565916L228.63152994791665,137.49309005737305L229.83498046875,141.5983875274658L231.03843098958336,139.06538581848145L232.24188151041668,125.78335533142089L233.44533203125002,136.08725509643554L234.64878255208333,135.92361221313476L235.85223307291668,133.7344982147217L237.05568359375,137.52561492919924L238.25913411458333,138.78097991943358L239.46258463541665,134.79457817077636L240.66603515625002,134.1889636993408L241.86948567708333,131.4662109375L243.07293619791668,132.12118988037108L244.27638671875,134.3503658294678L245.47983723958333,137.69377326965332L246.68328776041665,140.90623245239257L247.88673828125,134.65317306518554L249.09018880208336,147.98314208984377L250.29363932291668,137.75800819396974L251.49708984375002,139.86839027404787L252.70054036458333,141.70852394104006L253.90399088541668,145.54326744079592L255.10744140625,145.97332229614258L256.31089192708333,140.1768672943115L257.51434244791665,144.09356803894045L258.71779296875,145.10655822753907L259.92124348958333,143.89600830078123L261.12469401041665,143.63706550598144L262.32814453125,138.09999465942383L263.53159505208333,140.7535556793213L264.73504557291665,144.36381645202638" style="fill: none;" fill="none"></path></g><g><path stroke="rgb(255, 112, 67)" stroke-width="2px" d="M26.45184244791667,-516.650527191162L27.65529296875,5.694432830810539L28.858743489583333,23.238172149658194L30.06219401041667,30.070941543579092L31.26564453125,28.121044921874997L32.46909505208333,24.03801918029785L33.67254557291667,33.73504829406738L34.87599609375,37.03340301513671L36.07944661458333,40.13708381652832L37.28289713541667,34.80460052490234L38.486347656250004,39.16609077453613L39.68979817708333,31.75422248840331L40.89324869791667,42.846120452880854L42.09669921875,48.70395851135254L43.30014973958333,35.365603637695315L44.50360026041666,45.431983566284174L45.707050781250004,30.760108947753906L46.91050130208333,45.2887451171875L48.11395182291667,52.41393280029297L49.317402343750004,49.814455413818365L50.52085286458333,52.96539573669433L51.72430338541667,29.19008789062499L52.92775390625,46.08197174072265L54.13120442708333,43.69091835021973L55.33465494791667,53.93058319091797L56.538105468750004,51.009795379638675L57.74155598958333,42.34809608459473L58.94500651041667,38.446537399292L60.14845703125,53.97200317382813L61.35190755208333,45.15039558410645L62.55535807291666,65.06305236816407L63.758808593750004,56.94541473388672L64.96225911458333,53.27441596984863L66.16570963541666,56.47716522216797L67.36916015625,59.749140167236334L68.57261067708333,52.0385726928711L69.77606119791668,59.73522033691407L70.97951171875,60.37128868103028L72.18296223958333,56.050811004638675L73.38641276041666,51.78618240356445L74.58986328124999,64.37741584777832L75.79331380208333,59.69906272888184L76.99676432291666,56.58461952209473L78.20021484375,73.19623947143555L79.40366536458333,63.28457336425781L80.60711588541668,69.93506088256837L81.81056640625,71.9626708984375L83.01401692708333,65.20286178588867L84.21746744791668,70.92571144104004L85.42091796875,58.16132888793945L86.62436848958333,63.79970893859863L87.82781901041666,66.32778778076172L89.03126953125,67.62406349182129L90.23472005208333,75.2510440826416L91.43817057291666,59.84878578186036L92.64162109374999,59.11833419799805L93.84507161458333,60.33041191101074L95.04852213541666,67.049853515625L96.25197265625,65.64853401184082L97.45542317708333,70.08237342834472L98.65887369791668,71.07485733032226L99.86232421875,76.70390090942382L101.06577473958333,74.72446708679199L102.26922526041668,79.72705039978027L103.47267578125,71.43870811462402L104.67612630208333,68.58442993164063L105.87957682291666,72.07019309997558L107.08302734375,79.13026313781738L108.28647786458333,70.1396484375L109.48992838541666,92.78069381713867L110.69337890624999,93.31341590881348L111.89682942708333,82.13830451965332L113.10027994791666,96.46676673889161L114.30373046875,91.70723724365234L115.50718098958333,89.75971717834473L116.71063151041668,94.19701957702637L117.91408203125,101.1817527770996L119.11753255208333,95.81637115478516L120.32098307291668,99.36830444335938L121.52443359375,99.45185737609863L122.72788411458333,100.95435028076172L123.93133463541666,96.21278076171875L125.13478515625,94.50800895690918L126.33823567708333,91.51252937316895L127.54168619791666,100.22644500732422L128.74513671875,103.53566398620606L129.94858723958333,106.5775203704834L131.15203776041668,97.01357841491699L132.35548828125,106.59497108459473L133.55893880208333,103.74256019592285L134.76238932291668,106.55738754272461L135.96583984375,106.88334922790527L137.16929036458333,106.10696220397949L138.37274088541668,103.21170539855957L139.57619140625,89.85240287780762L140.77964192708333,102.9361946105957L141.98309244791668,109.16165199279786L143.18654296875002,113.58262405395507L144.38999348958333,101.76448440551758L145.59344401041668,105.01686973571778L146.79689453125,110.18391075134278L148.00034505208333,109.19193611145019L149.20379557291665,110.73374404907227L150.40724609375002,106.70059204101562L151.61069661458333,104.29314041137695L152.81414713541668,105.82632484436036L154.01759765625,102.71500511169434L155.22104817708333,108.14710006713867L156.42449869791665,109.36067161560058L157.62794921875,109.19719848632812L158.83139973958336,111.22419738769531L160.03485026041668,116.33769798278809L161.23830078125002,102.57872657775879L162.44175130208333,110.2082534790039L163.64520182291668,110.20159912109375L164.84865234375,111.79460487365722L166.05210286458333,108.38784523010254L167.25555338541665,117.75955772399902L168.45900390625002,116.91503143310547L169.66245442708333,117.38362045288086L170.86590494791668,117.34556159973144L172.06935546875,114.73892059326172L173.27280598958333,118.79638137817383L174.47625651041665,115.75231819152832L175.67970703125,113.85769348144531L176.88315755208336,109.36657905578613L178.08660807291668,122.85676193237305L179.29005859375002,116.24579315185547L180.49350911458333,121.29974403381348L181.69695963541668,112.04387168884277L182.90041015625,128.40062294006347L184.10386067708333,126.51523284912109L185.30731119791665,119.52774963378906L186.51076171875002,126.98100395202637L187.71421223958333,129.2523468017578L188.91766276041668,117.02557525634765L190.12111328125,120.86330642700196L191.32456380208333,125.09534225463867L192.52801432291665,134.63402481079103L193.73146484375,128.68961219787596L194.93491536458336,140.40539016723633L196.13836588541668,131.1880859375L197.34181640625002,129.38152961730955L198.54526692708333,134.28623275756834L199.74871744791668,130.8571334838867L200.95216796875,139.89752006530762L202.15561848958333,139.353763961792L203.35906901041665,138.70981903076174L204.56251953125002,137.15144309997558L205.76597005208333,134.74453468322756L206.96942057291668,137.6614860534668L208.17287109375,136.7772033691406L209.37632161458333,135.07565689086914L210.57977213541665,137.1784679412842L211.78322265625,134.7873466491699L212.98667317708336,139.09050941467285L214.19012369791668,136.72220306396483L215.39357421875002,136.48543014526368L216.59702473958333,139.3846591949463L217.80047526041668,141.30542602539063L219.00392578125,138.9822063446045L220.20737630208333,136.78674354553223L221.41082682291665,138.8196838378906L222.61427734375002,147.60866470336916L223.81772786458333,146.2074131011963L225.02117838541668,136.45881271362305L226.22462890625,149.0247528076172L227.42807942708333,133.90384483337402L228.63152994791665,138.53290138244628L229.83498046875,145.77304649353027L231.03843098958336,139.5686046600342L232.24188151041668,134.955810546875L233.44533203125002,140.03678627014162L234.64878255208333,140.95342407226562L235.85223307291668,146.5900047302246L237.05568359375,135.05759506225584L238.25913411458333,135.2305404663086L239.46258463541665,143.3296070098877L240.66603515625002,148.72551040649412L241.86948567708333,137.94304008483888L243.07293619791668,142.2945827484131L244.27638671875,146.4727725982666L245.47983723958333,150.21805572509766L246.68328776041665,150.44559402465822L247.88673828125,144.6871639251709L249.09018880208336,144.51785125732422L250.29363932291668,146.48428192138672L251.49708984375002,142.48005599975588L252.70054036458333,145.66525268554688L253.90399088541668,145.91550407409667L255.10744140625,142.73285369873045L256.31089192708333,142.06195182800295L257.51434244791665,141.85634574890136L258.71779296875,144.67585830688475L259.92124348958333,155.64719696044924L261.12469401041665,146.75364761352537L262.32814453125,144.8610939025879L263.53159505208333,144.92020225524902L264.73504557291665,148.97301177978514" style="fill: none;" fill="none"></path></g></g></g></g></g></g><g transform="translate(41, 178)" clip-path="url(#clip_1)"><clipPath id="clip_1"><rect width="288" height="22"></rect></clipPath><g><g><line x1="0" y1="0" x2="0" y2="5" style="visibility: inherit;" fill="rgb(0, 0, 0)" stroke="rgb(204, 204, 204)" stroke-width="1px"></line><line x1="24.069010416666664" y1="0" x2="24.069010416666664" y2="5" style="visibility: inherit;" fill="rgb(0, 0, 0)" stroke="rgb(204, 204, 204)" stroke-width="1px"></line><line x1="48.13802083333333" y1="0" x2="48.13802083333333" y2="5" style="visibility: inherit;" fill="rgb(0, 0, 0)" stroke="rgb(204, 204, 204)" stroke-width="1px"></line><line x1="72.20703125" y1="0" x2="72.20703125" y2="5" style="visibility: inherit;" fill="rgb(0, 0, 0)" stroke="rgb(204, 204, 204)" stroke-width="1px"></line><line x1="96.27604166666666" y1="0" x2="96.27604166666666" y2="5" style="visibility: inherit;" fill="rgb(0, 0, 0)" stroke="rgb(204, 204, 204)" stroke-width="1px"></line><line x1="120.34505208333334" y1="0" x2="120.34505208333334" y2="5" style="visibility: inherit;" fill="rgb(0, 0, 0)" stroke="rgb(204, 204, 204)" stroke-width="1px"></line><line x1="144.4140625" y1="0" x2="144.4140625" y2="5" style="visibility: inherit;" fill="rgb(0, 0, 0)" stroke="rgb(204, 204, 204)" stroke-width="1px"></line><line x1="168.48307291666669" y1="0" x2="168.48307291666669" y2="5" style="visibility: inherit;" fill="rgb(0, 0, 0)" stroke="rgb(204, 204, 204)" stroke-width="1px"></line><line x1="192.55208333333331" y1="0" x2="192.55208333333331" y2="5" style="visibility: inherit;" fill="rgb(0, 0, 0)" stroke="rgb(204, 204, 204)" stroke-width="1px"></line><line x1="216.62109375" y1="0" x2="216.62109375" y2="5" style="visibility: inherit;" fill="rgb(0, 0, 0)" stroke="rgb(204, 204, 204)" stroke-width="1px"></line><line x1="240.69010416666669" y1="0" x2="240.69010416666669" y2="5" style="visibility: inherit;" fill="rgb(0, 0, 0)" stroke="rgb(204, 204, 204)" stroke-width="1px"></line><line x1="264.7591145833333" y1="0" x2="264.7591145833333" y2="5" style="visibility: inherit;" fill="rgb(0, 0, 0)" stroke="rgb(204, 204, 204)" stroke-width="1px"></line><line x1="288.828125" y1="0" x2="288.828125" y2="5" style="visibility: inherit;" fill="rgb(0, 0, 0)" stroke="rgb(204, 204, 204)" stroke-width="1px"></line></g><g transform="translate(0, 8)"><text x="0" y="0" dx="0em" dy="0.95em" style="text-anchor: middle; visibility: hidden; font-family: Roboto, sans-serif; font-size: 12px; font-weight: 200;" fill="rgb(50, 49, 63)" stroke="none" stroke-width="1px">-1k</text><text x="24.069010416666664" y="0" dx="0em" dy="0.95em" style="text-anchor: middle; visibility: inherit; font-family: Roboto, sans-serif; font-size: 12px; font-weight: 200;" fill="rgb(50, 49, 63)" stroke="none" stroke-width="1px">0</text><text x="48.13802083333333" y="0" dx="0em" dy="0.95em" style="text-anchor: middle; visibility: inherit; font-family: Roboto, sans-serif; font-size: 12px; font-weight: 200;" fill="rgb(50, 49, 63)" stroke="none" stroke-width="1px">1k</text><text x="72.20703125" y="0" dx="0em" dy="0.95em" style="text-anchor: middle; visibility: inherit; font-family: Roboto, sans-serif; font-size: 12px; font-weight: 200;" fill="rgb(50, 49, 63)" stroke="none" stroke-width="1px">2k</text><text x="96.27604166666666" y="0" dx="0em" dy="0.95em" style="text-anchor: middle; visibility: inherit; font-family: Roboto, sans-serif; font-size: 12px; font-weight: 200;" fill="rgb(50, 49, 63)" stroke="none" stroke-width="1px">3k</text><text x="120.34505208333334" y="0" dx="0em" dy="0.95em" style="text-anchor: middle; visibility: inherit; font-family: Roboto, sans-serif; font-size: 12px; font-weight: 200;" fill="rgb(50, 49, 63)" stroke="none" stroke-width="1px">4k</text><text x="144.4140625" y="0" dx="0em" dy="0.95em" style="text-anchor: middle; visibility: inherit; font-family: Roboto, sans-serif; font-size: 12px; font-weight: 200;" fill="rgb(50, 49, 63)" stroke="none" stroke-width="1px">5k</text><text x="168.48307291666669" y="0" dx="0em" dy="0.95em" style="text-anchor: middle; visibility: inherit; font-family: Roboto, sans-serif; font-size: 12px; font-weight: 200;" fill="rgb(50, 49, 63)" stroke="none" stroke-width="1px">6k</text><text x="192.55208333333331" y="0" dx="0em" dy="0.95em" style="text-anchor: middle; visibility: inherit; font-family: Roboto, sans-serif; font-size: 12px; font-weight: 200;" fill="rgb(50, 49, 63)" stroke="none" stroke-width="1px">7k</text><text x="216.62109375" y="0" dx="0em" dy="0.95em" style="text-anchor: middle; visibility: inherit; font-family: Roboto, sans-serif; font-size: 12px; font-weight: 200;" fill="rgb(50, 49, 63)" stroke="none" stroke-width="1px">8k</text><text x="240.69010416666669" y="0" dx="0em" dy="0.95em" style="text-anchor: middle; visibility: inherit; font-family: Roboto, sans-serif; font-size: 12px; font-weight: 200;" fill="rgb(50, 49, 63)" stroke="none" stroke-width="1px">9k</text><text x="264.7591145833333" y="0" dx="0em" dy="0.95em" style="text-anchor: middle; visibility: inherit; font-family: Roboto, sans-serif; font-size: 12px; font-weight: 200;" fill="rgb(50, 49, 63)" stroke="none" stroke-width="1px">10k</text><text x="288.828125" y="0" dx="0em" dy="0.95em" style="text-anchor: middle; visibility: hidden; font-family: Roboto, sans-serif; font-size: 12px; font-weight: 200;" fill="rgb(50, 49, 63)" stroke="none" stroke-width="1px">11k</text></g><line x1="0" y1="0" x2="288.828125" y2="0" fill="rgb(0, 0, 0)" stroke="rgb(204, 204, 204)" stroke-width="1px"></line></g></g></g></g></svg>