<svg viewBox="0 0 330 200" xmlns="http://www.w3.org/2000/svg"><g><g><g><g><g><line x1="72.34375" y1="178" x2="67.34375" y2="178" style="visibility: inherit;" fill="rgb(0, 0, 0)" stroke="rgb(204, 204, 204)" stroke-width="1px"></line><line x1="72.34375" y1="165.28571428571428" x2="67.34375" y2="165.28571428571428" style="visibility: inherit;" fill="rgb(0, 0, 0)" stroke="rgb(204, 204, 204)" stroke-width="1px"></line><line x1="72.34375" y1="152.57142857142856" x2="67.34375" y2="152.57142857142856" style="visibility: inherit;" fill="rgb(0, 0, 0)" stroke="rgb(204, 204, 204)" stroke-width="1px"></line><line x1="72.34375" y1="139.85714285714286" x2="67.34375" y2="139.85714285714286" style="visibility: inherit;" fill="rgb(0, 0, 0)" stroke="rgb(204, 204, 204)" stroke-width="1px"></line><line x1="72.34375" y1="127.14285714285712" x2="67.34375" y2="127.14285714285712" style="visibility: inherit;" fill="rgb(0, 0, 0)" stroke="rgb(204, 204, 204)" stroke-width="1px"></line><line x1="72.34375" y1="114.42857142857142" x2="67.34375" y2="114.42857142857142" style="visibility: inherit;" fill="rgb(0, 0, 0)" stroke="rgb(204, 204, 204)" stroke-width="1px"></line><line x1="72.34375" y1="101.71428571428571" x2="67.34375" y2="101.71428571428571" style="visibility: inherit;" fill="rgb(0, 0, 0)" stroke="rgb(204, 204, 204)" stroke-width="1px"></line><line x1="72.34375" y1="89" x2="67.34375" y2="89" style="visibility: inherit;" fill="rgb(0, 0, 0)" stroke="rgb(204, 204, 204)" stroke-width="1px"></line><line x1="72.34375" y1="76.28571428571429" x2="67.34375" y2="76.28571428571429" style="visibility: inherit;" fill="rgb(0, 0, 0)" stroke="rgb(204, 204, 204)" stroke-width="1px"></line><line x1="72.34375" y1="63.571428571428584" x2="67.34375" y2="63.571428571428584" style="visibility: inherit;" fill="rgb(0, 0, 0)" stroke="rgb(204, 204, 204)" stroke-width="1px"></line><line x1="72.34375" y1="50.857142857142854" x2="67.34375" y2="50.857142857142854" style="visibility: inherit;" fill="rgb(0, 0, 0)" stroke="rgb(204, 204, 204)" stroke-width="1px"></line><line x1="72.34375" y1="38.142857142857125" x2="67.34375" y2="38.142857142857125" style="visibility: inherit;" fill="rgb(0, 0, 0)" stroke="rgb(204, 204, 204)" stroke-width="1px"></line><line x1="72.34375" y1="25.428571428571416" x2="67.34375" y2="25.428571428571416" style="visibility: inherit;" fill="rgb(0, 0, 0)" stroke="rgb(204, 204, 204)" stroke-width="1px"></line><line x1="72.34375" y1="12.714285714285689" x2="67.34375" y2="12.714285714285689" style="visibility: inherit;" fill="rgb(0, 0, 0)" stroke="rgb(204, 204, 204)" stroke-width="1px"></line></g><g transform="translate(62.34375, 0)"><text x="0" y="178" dx="0em" dy="0.3em" style="text-anchor: end; visibility: hidden; font-family: Roboto, sans-serif; font-size: 12px; font-weight: 200;" fill="rgb(50, 49, 63)" stroke="none" stroke-width="1px">-1e-4</text><text x="0" y="165.28571428571428" dx="0em" dy="0.3em" style="text-anchor: end; visibility: inherit; font-family: Roboto, sans-serif; font-size: 12px; font-weight: 200;" fill="rgb(50, 49, 63)" stroke="none" stroke-width="1px">-5e-5</text><text x="0" y="152.57142857142856" dx="0em" dy="0.3em" style="text-anchor: end; visibility: hidden; font-family: Roboto, sans-serif; font-size: 12px; font-weight: 200;" fill="rgb(50, 49, 63)" stroke="none" stroke-width="1px">0</text><text x="0" y="139.85714285714286" dx="0em" dy="0.3em" style="text-anchor: end; visibility: inherit; font-family: Roboto, sans-serif; font-size: 12px; font-weight: 200;" fill="rgb(50, 49, 63)" stroke="none" stroke-width="1px">5e-5</text><text x="0" y="127.14285714285712" dx="0em" dy="0.3em" style="text-anchor: end; visibility: hidden; font-family: Roboto, sans-serif; font-size: 12px; font-weight: 200;" fill="rgb(50, 49, 63)" stroke="none" stroke-width="1px">1e-4</text><text x="0" y="114.42857142857142" dx="0em" dy="0.3em" style="text-anchor: end; visibility: inherit; font-family: Roboto, sans-serif; font-size: 12px; font-weight: 200;" fill="rgb(50, 49, 63)" stroke="none" stroke-width="1px">1.5e-4</text><text x="0" y="101.71428571428571" dx="0em" dy="0.3em" style="text-anchor: end; visibility: hidden; font-family: Roboto, sans-serif; font-size: 12px; font-weight: 200;" fill="rgb(50, 49, 63)" stroke="none" stroke-width="1px">2e-4</text><text x="0" y="89" dx="0em" dy="0.3em" style="text-anchor: end; visibility: inherit; font-family: Roboto, sans-serif; font-size: 12px; font-weight: 200;" fill="rgb(50, 49, 63)" stroke="none" stroke-width="1px">2.5e-4</text><text x="0" y="76.28571428571429" dx="0em" dy="0.3em" style="text-anchor: end; visibility: hidden; font-family: Roboto, sans-serif; font-size: 12px; font-weight: 200;" fill="rgb(50, 49, 63)" stroke="none" stroke-width="1px">3e-4</text><text x="0" y="63.571428571428584" dx="0em" dy="0.3em" style="text-anchor: end; visibility: inherit; font-family: Roboto, sans-serif; font-size: 12px; font-weight: 200;" fill="rgb(50, 49, 63)" stroke="none" stroke-width="1px">3.5e-4</text><text x="0" y="50.857142857142854" dx="0em" dy="0.3em" style="text-anchor: end; visibility: hidden; font-family: Roboto, sans-serif; font-size: 12px; font-weight: 200;" fill="rgb(50, 49, 63)" stroke="none" stroke-width="1px">4e-4</text><text x="0" y="38.142857142857125" dx="0em" dy="0.3em" style="text-anchor: end; visibility: inherit; font-family: Roboto, sans-serif; font-size: 12px; font-weight: 200;" fill="rgb(50, 49, 63)" stroke="none" stroke-width="1px">4.5e-4</text><text x="0" y="25.428571428571416" dx="0em" dy="0.3em" style="text-anchor: end; visibility: hidden; font-family: Roboto, sans-serif; font-size: 12px; font-weight: 200;" fill="rgb(50, 49, 63)" stroke="none" stroke-width="1px">5e-4</text><text x="0" y="12.714285714285689" dx="0em" dy="0.3em" style="text-anchor: end; visibility: inherit; font-family: Roboto, sans-serif; font-size: 12px; font-weight: 200;" fill="rgb(50, 49, 63)" stroke="none" stroke-width="1px">5.5e-4</text></g><line x1="72.34375" y1="0" x2="72.34375" y2="178" fill="rgb(0, 0, 0)" stroke="rgb(204, 204, 204)" stroke-width="1px"></line></g></g><g transform="translate(72, 0)" clip-path="url(#clip_0)"><clipPath id="clip_0"><rect width="257" height="178"></rect></clipPath><g><g><g><line x1="0" y1="0" x2="0" y2="178" fill="rgb(0, 0, 0)" stroke="rgb(60, 60, 60)" stroke-width="1px" opacity="0.25"></line><line x1="21.471354166666664" y1="0" x2="21.471354166666664" y2="178" fill="rgb(0, 0, 0)" stroke="rgb(60, 60, 60)" stroke-width="1px" opacity="0.25"></line><line x1="42.94270833333333" y1="0" x2="42.94270833333333" y2="178" fill="rgb(0, 0, 0)" stroke="rgb(60, 60, 60)" stroke-width="1px" opacity="0.25"></line><line x1="64.4140625" y1="0" x2="64.4140625" y2="178" fill="rgb(0, 0, 0)" stroke="rgb(60, 60, 60)" stroke-width="1px" opacity="0.25"></line><line x1="85.88541666666666" y1="0" x2="85.88541666666666" y2="178" fill="rgb(0, 0, 0)" stroke="rgb(60, 60, 60)" stroke-width="1px" opacity="0.25"></line><line x1="107.35677083333334" y1="0" x2="107.35677083333334" y2="178" fill="rgb(0, 0, 0)" stroke="rgb(60, 60, 60)" stroke-width="1px" opacity="0.25"></line><line x1="128.828125" y1="0" x2="128.828125" y2="178" fill="rgb(0, 0, 0)" stroke="rgb(60, 60, 60)" stroke-width="1px" opacity="0.25"></line><line x1="150.29947916666669" y1="0" x2="150.29947916666669" y2="178" fill="rgb(0, 0, 0)" stroke="rgb(60, 60, 60)" stroke-width="1px" opacity="0.25"></line><line x1="171.77083333333331" y1="0" x2="171.77083333333331" y2="178" fill="rgb(0, 0, 0)" stroke="rgb(60, 60, 60)" stroke-width="1px" opacity="0.25"></line><line x1="193.2421875" y1="0" x2="193.2421875" y2="178" fill="rgb(0, 0, 0)" stroke="rgb(60, 60, 60)" stroke-width="1px" opacity="0.25"></line><line x1="214.71354166666669" y1="0" x2="214.71354166666669" y2="178" fill="rgb(0, 0, 0)" stroke="rgb(60, 60, 60)" stroke-width="1px" opacity="0.25"></line><line x1="236.18489583333331" y1="0" x2="236.18489583333331" y2="178" fill="rgb(0, 0, 0)" stroke="rgb(60, 60, 60)" stroke-width="1px" opacity="0.25"></line><line x1="257.65625" y1="0" x2="257.65625" y2="178" fill="rgb(0, 0, 0)" stroke="rgb(60, 60, 60)" stroke-width="1px" opacity="0.25"></line></g><g><line x1="0" y1="178" x2="257.65625" y2="178" fill="rgb(0, 0, 0)" stroke="rgb(60, 60, 60)" stroke-width="1px" opacity="0.25"></line><line x1="0" y1="165.28571428571428" x2="257.65625" y2="165.28571428571428" fill="rgb(0, 0, 0)" stroke="rgb(60, 60, 60)" stroke-width="1px" opacity="0.25"></line><line x1="0" y1="152.57142857142856" x2="257.65625" y2="152.57142857142856" fill="rgb(0, 0, 0)" stroke="rgb(60, 60, 60)" stroke-width="1px" opacity="0.25"></line><line x1="0" y1="139.85714285714286" x2="257.65625" y2="139.85714285714286" fill="rgb(0, 0, 0)" stroke="rgb(60, 60, 60)" stroke-width="1px" opacity="0.25"></line><line x1="0" y1="127.14285714285712" x2="257.65625" y2="127.14285714285712" fill="rgb(0, 0, 0)" stroke="rgb(60, 60, 60)" stroke-width="1px" opacity="0.25"></line><line x1="0" y1="114.42857142857142" x2="257.65625" y2="114.42857142857142" fill="rgb(0, 0, 0)" stroke="rgb(60, 60, 60)" stroke-width="1px" opacity="0.25"></line><line x1="0" y1="101.71428571428571" x2="257.65625" y2="101.71428571428571" fill="rgb(0, 0, 0)" stroke="rgb(60, 60, 60)" stroke-width="1px" opacity="0.25"></line><line x1="0" y1="89" x2="257.65625" y2="89" fill="rgb(0, 0, 0)" stroke="rgb(60, 60, 60)" stroke-width="1px" opacity="0.25"></line><line x1="0" y1="76.28571428571429" x2="257.65625" y2="76.28571428571429" fill="rgb(0, 0, 0)" stroke="rgb(60, 60, 60)" stroke-width="1px" opacity="0.25"></line><line x1="0" y1="63.571428571428584" x2="257.65625" y2="63.571428571428584" fill="rgb(0, 0, 0)" stroke="rgb(60, 60, 60)" stroke-width="1px" opacity="0.25"></line><line x1="0" y1="50.857142857142854" x2="257.65625" y2="50.857142857142854" fill="rgb(0, 0, 0)" stroke="rgb(60, 60, 60)" stroke-width="1px" opacity="0.25"></line><line x1="0" y1="38.142857142857125" x2="257.65625" y2="38.142857142857125" fill="rgb(0, 0, 0)" stroke="rgb(60, 60, 60)" stroke-width="1px" opacity="0.25"></line><line x1="0" y1="25.428571428571416" x2="257.65625" y2="25.428571428571416" fill="rgb(0, 0, 0)" stroke="rgb(60, 60, 60)" stroke-width="1px" opacity="0.25"></line><line x1="0" y1="12.714285714285689" x2="257.65625" y2="12.714285714285689" fill="rgb(0, 0, 0)" stroke="rgb(60, 60, 60)" stroke-width="1px" opacity="0.25"></line></g></g></g><g><g><line x1="0" y1="152.57142857142856" x2="257.65625" y2="152.57142857142856" fill="rgb(0, 0, 0)" stroke="rgb(153, 153, 153)" stroke-width="1.5px"></line></g></g><g><g><line x1="21.471354166666664" y1="0" x2="21.471354166666664" y2="178" fill="rgb(0, 0, 0)" stroke="rgb(153, 153, 153)" stroke-width="1.5px"></line></g></g><g><g><g><g><g><path stroke="rgb(238, 51, 119)" stroke-width="2px" d="M21.471354166666664,25.428565389609744L22.544921875,25.428565389609744L23.618489583333332,25.428565389609744L24.692057291666668,25.428565389609744L25.765625,25.428565389609744L26.839192708333336,25.428565389609744L27.912760416666668,25.428565389609744L28.986328125,25.428565389609744L30.059895833333332,25.428565389609744L31.133463541666668,25.428565389609744L32.20703125,25.428565389609744L33.280598958333336,25.428565389609744L34.354166666666664,25.428565389609744L35.427734375,25.428565389609744L36.501302083333336,25.428565389609744L37.57486979166667,25.428565389609744L38.6484375,25.428565389609744L39.722005208333336,25.428565389609744L40.795572916666664,25.428565389609744L41.869140625,25.428565389609744L42.94270833333333,25.428565389609744L44.016276041666664,25.428565389609744L45.08984375,25.428565389609744L46.163411458333336,25.428565389609744L47.236979166666664,25.428565389609744L48.310546875,25.428565389609744L49.384114583333336,25.428565389609744L50.457682291666664,25.428565389609744L51.53125,25.428565389609744L52.604817708333336,25.428565389609744L53.67838541666667,25.428565389609744L54.751953125,25.428565389609744L55.825520833333336,25.428565389609744L56.899088541666664,25.428565389609744L57.97265625,25.428565389609744L59.04622395833333,25.428565389609744L60.119791666666664,25.428565389609744L61.193359375,25.428565389609744L62.266927083333336,25.428565389609744L63.340494791666664,25.428565389609744L64.4140625,25.428565389609744L65.48763020833333,25.428565389609744L66.56119791666667,25.428565389609744L67.634765625,25.428565389609744L68.70833333333333,25.428565389609744L69.78190104166666,25.428565389609744L70.85546875,25.428565389609744L71.92903645833333,25.428565389609744L73.00260416666667,25.428565389609744L74.076171875,25.428565389609744L75.14973958333334,25.428565389609744L76.22330729166667,25.428565389609744L77.296875,25.428565389609744L78.37044270833333,25.428565389609744L79.44401041666667,25.428565389609744L80.517578125,25.428565389609744L81.59114583333333,25.428565389609744L82.66471354166667,25.428565389609744L83.73828125,25.428565389609744L84.81184895833333,25.428565389609744L85.88541666666666,25.428565389609744L86.958984375,25.428565389609744L88.03255208333333,25.428565389609744L89.10611979166667,25.428565389609744L90.1796875,25.428565389609744L91.25325520833334,25.428565389609744L92.32682291666667,25.428565389609744L93.400390625,25.428565389609744L94.47395833333333,25.428565389609744L95.54752604166667,25.428565389609744L96.62109375,120.78571277597386L97.69466145833333,120.78571277597386L98.76822916666667,120.78571277597386L99.841796875,120.78571277597386L100.91536458333333,120.78571277597386L101.98893229166666,120.78571277597386L103.0625,120.78571277597386L104.13606770833333,120.78571277597386L105.20963541666667,120.78571277597386L106.283203125,120.78571277597386L107.35677083333334,120.78571277597386L108.43033854166667,120.78571277597386L109.50390625,120.78571277597386L110.57747395833333,120.78571277597386L111.65104166666667,120.78571277597386L112.724609375,120.78571277597386L113.79817708333333,120.78571277597386L114.87174479166667,120.78571277597386L115.9453125,120.78571277597386L117.01888020833333,120.78571277597386L118.09244791666666,120.78571277597386L119.166015625,120.78571277597386L120.23958333333333,120.78571277597386L121.31315104166667,120.78571277597386L122.38671875,120.78571277597386L123.46028645833334,120.78571277597386L124.53385416666667,120.78571277597386L125.607421875,120.78571277597386L126.68098958333333,120.78571277597386L127.75455729166667,120.78571277597386L128.828125,120.78571277597386L129.90169270833334,120.78571277597386L130.97526041666666,120.78571277597386L132.048828125,120.78571277597386L133.12239583333334,120.78571277597386L134.19596354166669,120.78571277597386L135.26953125,120.78571277597386L136.34309895833334,120.78571277597386L137.41666666666666,120.78571277597386L138.490234375,120.78571277597386L139.56380208333331,120.78571277597386L140.63736979166666,120.78571277597386L141.7109375,120.78571277597386L142.78450520833334,120.78571277597386L143.85807291666666,120.78571277597386L144.931640625,120.78571277597386L146.00520833333334,120.78571277597386L147.07877604166666,120.78571277597386L148.15234375,120.78571277597386L149.22591145833334,120.78571277597386L150.29947916666669,120.78571277597386L151.373046875,120.78571277597386L152.44661458333334,120.78571277597386L153.52018229166666,120.78571277597386L154.59375,120.78571277597386L155.66731770833331,120.78571277597386L156.74088541666666,120.78571277597386L157.814453125,120.78571277597386L158.88802083333334,120.78571277597386L159.96158854166666,120.78571277597386L161.03515625,120.78571277597386L162.10872395833334,120.78571277597386L163.18229166666666,120.78571277597386L164.255859375,120.78571277597386L165.32942708333334,120.78571277597386L166.40299479166669,120.78571277597386L167.4765625,120.78571277597386L168.55013020833334,120.78571277597386L169.62369791666666,120.78571277597386L170.697265625,120.78571277597386L171.77083333333331,144.6249996225649L172.84440104166666,144.6249996225649L173.91796875,144.6249996225649L174.99153645833334,144.6249996225649L176.06510416666666,144.6249996225649L177.138671875,144.6249996225649L178.21223958333334,144.6249996225649L179.28580729166666,144.6249996225649L180.359375,144.6249996225649L181.43294270833334,144.6249996225649L182.50651041666669,144.6249996225649L183.580078125,144.6249996225649L184.65364583333334,144.6249996225649L185.72721354166666,144.6249996225649L186.80078125,144.6249996225649L187.87434895833331,144.6249996225649L188.94791666666666,144.6249996225649L190.021484375,144.6249996225649L191.09505208333334,144.6249996225649L192.16861979166666,144.6249996225649L193.2421875,144.6249996225649L194.31575520833334,144.6249996225649L195.38932291666666,144.6249996225649L196.462890625,144.6249996225649L197.53645833333334,144.6249996225649L198.61002604166669,144.6249996225649L199.68359375,144.6249996225649L200.75716145833334,144.6249996225649L201.83072916666666,144.6249996225649L202.904296875,144.6249996225649L203.97786458333331,144.6249996225649L205.05143229166666,144.6249996225649L206.125,144.6249996225649L207.19856770833334,144.6249996225649L208.27213541666666,144.6249996225649L209.345703125,144.6249996225649L210.41927083333334,144.6249996225649L211.49283854166666,144.6249996225649L212.56640625,144.6249996225649L213.63997395833334,144.6249996225649L214.71354166666669,144.6249996225649L215.787109375,144.6249996225649L216.86067708333334,144.6249996225649L217.93424479166666,144.6249996225649L219.0078125,144.6249996225649L220.08138020833331,144.6249996225649L221.15494791666666,144.6249996225649L222.228515625,144.6249996225649L223.30208333333334,144.6249996225649L224.37565104166666,144.6249996225649L225.44921875,144.6249996225649L226.52278645833334,144.6249996225649L227.59635416666666,144.6249996225649L228.669921875,144.6249996225649L229.74348958333334,144.6249996225649L230.81705729166669,144.6249996225649L231.890625,144.6249996225649L232.96419270833334,144.6249996225649L234.03776041666666,144.6249996225649L235.111328125,144.6249996225649" style="fill: none;" fill="none"></path></g><g><path stroke="rgb(51, 187, 238)" stroke-width="2px" d="M21.471354166666664,25.428565389609744L22.544921875,25.428565389609744L23.618489583333332,25.428565389609744L24.692057291666668,25.428565389609744L25.765625,25.428565389609744L26.839192708333336,25.428565389609744L27.912760416666668,25.428565389609744L28.986328125,25.428565389609744L30.059895833333332,25.428565389609744L31.133463541666668,25.428565389609744L32.20703125,25.428565389609744L33.280598958333336,25.428565389609744L34.354166666666664,25.428565389609744L35.427734375,25.428565389609744L36.501302083333336,25.428565389609744L37.57486979166667,25.428565389609744L38.6484375,25.428565389609744L39.722005208333336,25.428565389609744L40.795572916666664,25.428565389609744L41.869140625,25.428565389609744L42.94270833333333,25.428565389609744L44.016276041666664,25.428565389609744L45.08984375,25.428565389609744L46.163411458333336,25.428565389609744L47.236979166666664,25.428565389609744L48.310546875,25.428565389609744L49.384114583333336,25.428565389609744L50.457682291666664,25.428565389609744L51.53125,25.428565389609744L52.604817708333336,25.428565389609744L53.67838541666667,25.428565389609744L54.751953125,25.428565389609744L55.825520833333336,25.428565389609744L56.899088541666664,25.428565389609744L57.97265625,25.428565389609744L59.04622395833333,25.428565389609744L60.119791666666664,25.428565389609744L61.193359375,25.428565389609744L62.266927083333336,25.428565389609744L63.340494791666664,25.428565389609744L64.4140625,25.428565389609744L65.48763020833333,25.428565389609744L66.56119791666667,25.428565389609744L67.634765625,25.428565389609744L68.70833333333333,25.428565389609744L69.78190104166666,25.428565389609744L70.85546875,25.428565389609744L71.92903645833333,25.428565389609744L73.00260416666667,25.428565389609744L74.076171875,25.428565389609744L75.14973958333334,25.428565389609744L76.22330729166667,25.428565389609744L77.296875,25.428565389609744L78.37044270833333,25.428565389609744L79.44401041666667,25.428565389609744L80.517578125,25.428565389609744L81.59114583333333,25.428565389609744L82.66471354166667,25.428565389609744L83.73828125,25.428565389609744L84.81184895833333,25.428565389609744L85.88541666666666,25.428565389609744L86.958984375,25.428565389609744L88.03255208333333,25.428565389609744L89.10611979166667,25.428565389609744L90.1796875,25.428565389609744L91.25325520833334,25.428565389609744L92.32682291666667,25.428565389609744L93.400390625,25.428565389609744L94.47395833333333,25.428565389609744L95.54752604166667,25.428565389609744L96.62109375,120.78571277597386L97.69466145833333,120.78571277597386L98.76822916666667,120.78571277597386L99.841796875,120.78571277597386L100.91536458333333,120.78571277597386L101.98893229166666,120.78571277597386L103.0625,120.78571277597386L104.13606770833333,120.78571277597386L105.20963541666667,120.78571277597386L106.283203125,120.78571277597386L107.35677083333334,120.78571277597386L108.43033854166667,120.78571277597386L109.50390625,120.78571277597386L110.57747395833333,120.78571277597386L111.65104166666667,120.78571277597386L112.724609375,120.78571277597386L113.79817708333333,120.78571277597386L114.87174479166667,120.78571277597386L115.9453125,120.78571277597386L117.01888020833333,120.78571277597386L118.09244791666666,120.78571277597386L119.166015625,120.78571277597386L120.23958333333333,120.78571277597386L121.31315104166667,120.78571277597386L122.38671875,120.78571277597386L123.46028645833334,120.78571277597386L124.53385416666667,120.78571277597386L125.607421875,120.78571277597386L126.68098958333333,120.78571277597386L127.75455729166667,120.78571277597386L128.828125,120.78571277597386L129.90169270833334,120.78571277597386L130.97526041666666,120.78571277597386L132.048828125,120.78571277597386L133.12239583333334,120.78571277597386L134.19596354166669,120.78571277597386L135.26953125,120.78571277597386L136.34309895833334,120.78571277597386L137.41666666666666,120.78571277597386L138.490234375,120.78571277597386L139.56380208333331,120.78571277597386L140.63736979166666,120.78571277597386L141.7109375,120.78571277597386L142.78450520833334,120.78571277597386L143.85807291666666,120.78571277597386L144.931640625,120.78571277597386L146.00520833333334,120.78571277597386L147.07877604166666,120.78571277597386L148.15234375,120.78571277597386L149.22591145833334,120.78571277597386L150.29947916666669,120.78571277597386L151.373046875,120.78571277597386L152.44661458333334,120.78571277597386L153.52018229166666,120.78571277597386L154.59375,120.78571277597386L155.66731770833331,120.78571277597386L156.74088541666666,120.78571277597386L157.814453125,120.78571277597386L158.88802083333334,120.78571277597386L159.96158854166666,120.78571277597386L161.03515625,120.78571277597386L162.10872395833334,120.78571277597386L163.18229166666666,120.78571277597386L164.255859375,120.78571277597386L165.32942708333334,120.78571277597386L166.40299479166669,120.78571277597386L167.4765625,120.78571277597386L168.55013020833334,120.78571277597386L169.62369791666666,120.78571277597386L170.697265625,120.78571277597386L171.77083333333331,144.6249996225649L172.84440104166666,144.6249996225649L173.91796875,144.6249996225649L174.99153645833334,144.6249996225649L176.06510416666666,144.6249996225649L177.138671875,144.6249996225649L178.21223958333334,144.6249996225649L179.28580729166666,144.6249996225649L180.359375,144.6249996225649L181.43294270833334,144.6249996225649L182.50651041666669,144.6249996225649L183.580078125,144.6249996225649L184.65364583333334,144.6249996225649L185.72721354166666,144.6249996225649L186.80078125,144.6249996225649L187.87434895833331,144.6249996225649L188.94791666666666,144.6249996225649L190.021484375,144.6249996225649L191.09505208333334,144.6249996225649L192.16861979166666,144.6249996225649L193.2421875,144.6249996225649L194.31575520833334,144.6249996225649L195.38932291666666,144.6249996225649L196.462890625,144.6249996225649L197.53645833333334,144.6249996225649L198.61002604166669,144.6249996225649L199.68359375,144.6249996225649L200.75716145833334,144.6249996225649L201.83072916666666,144.6249996225649L202.904296875,144.6249996225649L203.97786458333331,144.6249996225649L205.05143229166666,144.6249996225649L206.125,144.6249996225649L207.19856770833334,144.6249996225649L208.27213541666666,144.6249996225649L209.345703125,144.6249996225649L210.41927083333334,144.6249996225649L211.49283854166666,144.6249996225649L212.56640625,144.6249996225649L213.63997395833334,144.6249996225649L214.71354166666669,144.6249996225649L215.787109375,144.6249996225649L216.86067708333334,144.6249996225649L217.93424479166666,144.6249996225649L219.0078125,144.6249996225649L220.08138020833331,144.6249996225649L221.15494791666666,144.6249996225649L222.228515625,144.6249996225649L223.30208333333334,144.6249996225649L224.37565104166666,144.6249996225649L225.44921875,144.6249996225649L226.52278645833334,144.6249996225649L227.59635416666666,144.6249996225649L228.669921875,144.6249996225649L229.74348958333334,144.6249996225649L230.81705729166669,144.6249996225649L231.890625,144.6249996225649L232.96419270833334,144.6249996225649L234.03776041666666,144.6249996225649L235.111328125,144.6249996225649" style="fill: none;" fill="none"></path></g><g><path stroke="rgb(204, 51, 17)" stroke-width="2px" d="M21.471354166666664,25.428565389609744L22.544921875,25.428565389609744L23.618489583333332,25.428565389609744L24.692057291666668,25.428565389609744L25.765625,25.428565389609744L26.839192708333336,25.428565389609744L27.912760416666668,25.428565389609744L28.986328125,25.428565389609744L30.059895833333332,25.428565389609744L31.133463541666668,25.428565389609744L32.20703125,25.428565389609744L33.280598958333336,25.428565389609744L34.354166666666664,25.428565389609744L35.427734375,25.428565389609744L36.501302083333336,25.428565389609744L37.57486979166667,25.428565389609744L38.6484375,25.428565389609744L39.722005208333336,25.428565389609744L40.795572916666664,25.428565389609744L41.869140625,25.428565389609744L42.94270833333333,25.428565389609744L44.016276041666664,25.428565389609744L45.08984375,25.428565389609744L46.163411458333336,25.428565389609744L47.236979166666664,25.428565389609744L48.310546875,25.428565389609744L49.384114583333336,25.428565389609744L50.457682291666664,25.428565389609744L51.53125,25.428565389609744L52.604817708333336,25.428565389609744L53.67838541666667,25.428565389609744L54.751953125,25.428565389609744L55.825520833333336,25.428565389609744L56.899088541666664,25.428565389609744L57.97265625,25.428565389609744L59.04622395833333,25.428565389609744L60.119791666666664,25.428565389609744L61.193359375,25.428565389609744L62.266927083333336,25.428565389609744L63.340494791666664,25.428565389609744L64.4140625,25.428565389609744L65.48763020833333,25.428565389609744L66.56119791666667,25.428565389609744L67.634765625,25.428565389609744L68.70833333333333,25.428565389609744L69.78190104166666,25.428565389609744L70.85546875,25.428565389609744L71.92903645833333,25.428565389609744L73.00260416666667,25.428565389609744L74.076171875,25.428565389609744L75.14973958333334,25.428565389609744L76.22330729166667,25.428565389609744L77.296875,25.428565389609744L78.37044270833333,25.428565389609744L79.44401041666667,25.428565389609744L80.517578125,25.428565389609744L81.59114583333333,25.428565389609744L82.66471354166667,25.428565389609744L83.73828125,25.428565389609744L84.81184895833333,25.428565389609744L85.88541666666666,25.428565389609744L86.958984375,25.428565389609744L88.03255208333333,25.428565389609744L89.10611979166667,25.428565389609744L90.1796875,25.428565389609744L91.25325520833334,25.428565389609744L92.32682291666667,25.428565389609744L93.400390625,25.428565389609744L94.47395833333333,25.428565389609744L95.54752604166667,25.428565389609744L96.62109375,120.78571277597386L97.69466145833333,120.78571277597386L98.76822916666667,120.78571277597386L99.841796875,120.78571277597386L100.91536458333333,120.78571277597386L101.98893229166666,120.78571277597386L103.0625,120.78571277597386L104.13606770833333,120.78571277597386L105.20963541666667,120.78571277597386L106.283203125,120.78571277597386L107.35677083333334,120.78571277597386L108.43033854166667,120.78571277597386L109.50390625,120.78571277597386L110.57747395833333,120.78571277597386L111.65104166666667,120.78571277597386L112.724609375,120.78571277597386L113.79817708333333,120.78571277597386L114.87174479166667,120.78571277597386L115.9453125,120.78571277597386L117.01888020833333,120.78571277597386L118.09244791666666,120.78571277597386L119.166015625,120.78571277597386L120.23958333333333,120.78571277597386L121.31315104166667,120.78571277597386L122.38671875,120.78571277597386L123.46028645833334,120.78571277597386L124.53385416666667,120.78571277597386L125.607421875,120.78571277597386L126.68098958333333,120.78571277597386L127.75455729166667,120.78571277597386L128.828125,120.78571277597386L129.90169270833334,120.78571277597386L130.97526041666666,120.78571277597386L132.048828125,120.78571277597386L133.12239583333334,120.78571277597386L134.19596354166669,120.78571277597386L135.26953125,120.78571277597386L136.34309895833334,120.78571277597386L137.41666666666666,120.78571277597386L138.490234375,120.78571277597386L139.56380208333331,120.78571277597386L140.63736979166666,120.78571277597386L141.7109375,120.78571277597386L142.78450520833334,120.78571277597386L143.85807291666666,120.78571277597386L144.931640625,120.78571277597386L146.00520833333334,120.78571277597386L147.07877604166666,120.78571277597386L148.15234375,120.78571277597386L149.22591145833334,120.78571277597386L150.29947916666669,120.78571277597386L151.373046875,120.78571277597386L152.44661458333334,120.78571277597386L153.52018229166666,120.78571277597386L154.59375,120.78571277597386L155.66731770833331,120.78571277597386L156.74088541666666,120.78571277597386L157.814453125,120.78571277597386L158.88802083333334,120.78571277597386L159.96158854166666,120.78571277597386L161.03515625,120.78571277597386L162.10872395833334,120.78571277597386L163.18229166666666,120.78571277597386L164.255859375,120.78571277597386L165.32942708333334,120.78571277597386L166.40299479166669,120.78571277597386L167.4765625,120.78571277597386L168.55013020833334,120.78571277597386L169.62369791666666,120.78571277597386L170.697265625,120.78571277597386L171.77083333333331,144.6249996225649L172.84440104166666,144.6249996225649L173.91796875,144.6249996225649L174.99153645833334,144.6249996225649L176.06510416666666,144.6249996225649L177.138671875,144.6249996225649L178.21223958333334,144.6249996225649L179.28580729166666,144.6249996225649L180.359375,144.6249996225649L181.43294270833334,144.6249996225649L182.50651041666669,144.6249996225649L183.580078125,144.6249996225649L184.65364583333334,144.6249996225649L185.72721354166666,144.6249996225649L186.80078125,144.6249996225649L187.87434895833331,144.6249996225649L188.94791666666666,144.6249996225649L190.021484375,144.6249996225649L191.09505208333334,144.6249996225649L192.16861979166666,144.6249996225649L193.2421875,144.6249996225649L194.31575520833334,144.6249996225649L195.38932291666666,144.6249996225649L196.462890625,144.6249996225649L197.53645833333334,144.6249996225649L198.61002604166669,144.6249996225649L199.68359375,144.6249996225649L200.75716145833334,144.6249996225649L201.83072916666666,144.6249996225649L202.904296875,144.6249996225649L203.97786458333331,144.6249996225649L205.05143229166666,144.6249996225649L206.125,144.6249996225649L207.19856770833334,144.6249996225649L208.27213541666666,144.6249996225649L209.345703125,144.6249996225649L210.41927083333334,144.6249996225649L211.49283854166666,144.6249996225649L212.56640625,144.6249996225649L213.63997395833334,144.6249996225649L214.71354166666669,144.6249996225649L215.787109375,144.6249996225649L216.86067708333334,144.6249996225649L217.93424479166666,144.6249996225649L219.0078125,144.6249996225649L220.08138020833331,144.6249996225649L221.15494791666666,144.6249996225649L222.228515625,144.6249996225649L223.30208333333334,144.6249996225649L224.37565104166666,144.6249996225649L225.44921875,144.6249996225649L226.52278645833334,144.6249996225649L227.59635416666666,144.6249996225649L228.669921875,144.6249996225649L229.74348958333334,144.6249996225649L230.81705729166669,144.6249996225649L231.890625,144.6249996225649L232.96419270833334,144.6249996225649L234.03776041666666,144.6249996225649L235.111328125,144.6249996225649" style="fill: none;" fill="none"></path></g><g><path stroke="rgb(0, 119, 187)" stroke-width="2px" d="M21.471354166666664,25.428565389609744L22.544921875,25.428565389609744L23.618489583333332,25.428565389609744L24.692057291666668,25.428565389609744L25.765625,25.428565389609744L26.839192708333336,25.428565389609744L27.912760416666668,25.428565389609744L28.986328125,25.428565389609744L30.059895833333332,25.428565389609744L31.133463541666668,25.428565389609744L32.20703125,25.428565389609744L33.280598958333336,25.428565389609744L34.354166666666664,25.428565389609744L35.427734375,25.428565389609744L36.501302083333336,25.428565389609744L37.57486979166667,25.428565389609744L38.6484375,25.428565389609744L39.722005208333336,25.428565389609744L40.795572916666664,25.428565389609744L41.869140625,25.428565389609744L42.94270833333333,25.428565389609744L44.016276041666664,25.428565389609744L45.08984375,25.428565389609744L46.163411458333336,25.428565389609744L47.236979166666664,25.428565389609744L48.310546875,25.428565389609744L49.384114583333336,25.428565389609744L50.457682291666664,25.428565389609744L51.53125,25.428565389609744L52.604817708333336,25.428565389609744L53.67838541666667,25.428565389609744L54.751953125,25.428565389609744L55.825520833333336,25.428565389609744L56.899088541666664,25.428565389609744L57.97265625,25.428565389609744L59.04622395833333,25.428565389609744L60.119791666666664,25.428565389609744L61.193359375,25.428565389609744L62.266927083333336,25.428565389609744L63.340494791666664,25.428565389609744L64.4140625,25.428565389609744L65.48763020833333,25.428565389609744L66.56119791666667,25.428565389609744L67.634765625,25.428565389609744L68.70833333333333,25.428565389609744L69.78190104166666,25.428565389609744L70.85546875,25.428565389609744L71.92903645833333,25.428565389609744L73.00260416666667,25.428565389609744L74.076171875,25.428565389609744L75.14973958333334,25.428565389609744L76.22330729166667,25.428565389609744L77.296875,25.428565389609744L78.37044270833333,25.428565389609744L79.44401041666667,25.428565389609744L80.517578125,25.428565389609744L81.59114583333333,25.428565389609744L82.66471354166667,25.428565389609744L83.73828125,25.428565389609744L84.81184895833333,25.428565389609744L85.88541666666666,25.428565389609744L86.958984375,25.428565389609744L88.03255208333333,25.428565389609744L89.10611979166667,25.428565389609744L90.1796875,25.428565389609744L91.25325520833334,25.428565389609744L92.32682291666667,25.428565389609744L93.400390625,25.428565389609744L94.47395833333333,25.428565389609744L95.54752604166667,25.428565389609744L96.62109375,120.78571277597386L97.69466145833333,120.78571277597386L98.76822916666667,120.78571277597386L99.841796875,120.78571277597386L100.91536458333333,120.78571277597386L101.98893229166666,120.78571277597386L103.0625,120.78571277597386L104.13606770833333,120.78571277597386L105.20963541666667,120.78571277597386L106.283203125,120.78571277597386L107.35677083333334,120.78571277597386L108.43033854166667,120.78571277597386L109.50390625,120.78571277597386L110.57747395833333,120.78571277597386L111.65104166666667,120.78571277597386L112.724609375,120.78571277597386L113.79817708333333,120.78571277597386L114.87174479166667,120.78571277597386L115.9453125,120.78571277597386L117.01888020833333,120.78571277597386L118.09244791666666,120.78571277597386L119.166015625,120.78571277597386L120.23958333333333,120.78571277597386L121.31315104166667,120.78571277597386L122.38671875,120.78571277597386L123.46028645833334,120.78571277597386L124.53385416666667,120.78571277597386L125.607421875,120.78571277597386L126.68098958333333,120.78571277597386L127.75455729166667,120.78571277597386L128.828125,120.78571277597386L129.90169270833334,120.78571277597386L130.97526041666666,120.78571277597386L132.048828125,120.78571277597386L133.12239583333334,120.78571277597386L134.19596354166669,120.78571277597386L135.26953125,120.78571277597386L136.34309895833334,120.78571277597386L137.41666666666666,120.78571277597386L138.490234375,120.78571277597386L139.56380208333331,120.78571277597386L140.63736979166666,120.78571277597386L141.7109375,120.78571277597386L142.78450520833334,120.78571277597386L143.85807291666666,120.78571277597386L144.931640625,120.78571277597386L146.00520833333334,120.78571277597386L147.07877604166666,120.78571277597386L148.15234375,120.78571277597386L149.22591145833334,120.78571277597386L150.29947916666669,120.78571277597386L151.373046875,120.78571277597386L152.44661458333334,120.78571277597386L153.52018229166666,120.78571277597386L154.59375,120.78571277597386L155.66731770833331,120.78571277597386L156.74088541666666,120.78571277597386L157.814453125,120.78571277597386L158.88802083333334,120.78571277597386L159.96158854166666,120.78571277597386L161.03515625,120.78571277597386L162.10872395833334,120.78571277597386L163.18229166666666,120.78571277597386L164.255859375,120.78571277597386L165.32942708333334,120.78571277597386L166.40299479166669,120.78571277597386L167.4765625,120.78571277597386L168.55013020833334,120.78571277597386L169.62369791666666,120.78571277597386L170.697265625,120.78571277597386L171.77083333333331,144.6249996225649L172.84440104166666,144.6249996225649L173.91796875,144.6249996225649L174.99153645833334,144.6249996225649L176.06510416666666,144.6249996225649L177.138671875,144.6249996225649L178.21223958333334,144.6249996225649L179.28580729166666,144.6249996225649L180.359375,144.6249996225649L181.43294270833334,144.6249996225649L182.50651041666669,144.6249996225649L183.580078125,144.6249996225649L184.65364583333334,144.6249996225649L185.72721354166666,144.6249996225649L186.80078125,144.6249996225649L187.87434895833331,144.6249996225649L188.94791666666666,144.6249996225649L190.021484375,144.6249996225649L191.09505208333334,144.6249996225649L192.16861979166666,144.6249996225649L193.2421875,144.6249996225649L194.31575520833334,144.6249996225649L195.38932291666666,144.6249996225649L196.462890625,144.6249996225649L197.53645833333334,144.6249996225649L198.61002604166669,144.6249996225649L199.68359375,144.6249996225649L200.75716145833334,144.6249996225649L201.83072916666666,144.6249996225649L202.904296875,144.6249996225649L203.97786458333331,144.6249996225649L205.05143229166666,144.6249996225649L206.125,144.6249996225649L207.19856770833334,144.6249996225649L208.27213541666666,144.6249996225649L209.345703125,144.6249996225649L210.41927083333334,144.6249996225649L211.49283854166666,144.6249996225649L212.56640625,144.6249996225649L213.63997395833334,144.6249996225649L214.71354166666669,144.6249996225649L215.787109375,144.6249996225649L216.86067708333334,144.6249996225649L217.93424479166666,144.6249996225649L219.0078125,144.6249996225649L220.08138020833331,144.6249996225649L221.15494791666666,144.6249996225649L222.228515625,144.6249996225649L223.30208333333334,144.6249996225649L224.37565104166666,144.6249996225649L225.44921875,144.6249996225649L226.52278645833334,144.6249996225649L227.59635416666666,144.6249996225649L228.669921875,144.6249996225649L229.74348958333334,144.6249996225649L230.81705729166669,144.6249996225649L231.890625,144.6249996225649L232.96419270833334,144.6249996225649L234.03776041666666,144.6249996225649L235.111328125,144.6249996225649" style="fill: none;" fill="none"></path></g><g><path stroke="rgb(255, 112, 67)" stroke-width="2px" d="M21.471354166666664,25.428565389609744L22.544921875,25.428565389609744L23.618489583333332,25.428565389609744L24.692057291666668,25.428565389609744L25.765625,25.428565389609744L26.839192708333336,25.428565389609744L27.912760416666668,25.428565389609744L28.986328125,25.428565389609744L30.059895833333332,25.428565389609744L31.133463541666668,25.428565389609744L32.20703125,25.428565389609744L33.280598958333336,25.428565389609744L34.354166666666664,25.428565389609744L35.427734375,25.428565389609744L36.501302083333336,25.428565389609744L37.57486979166667,25.428565389609744L38.6484375,25.428565389609744L39.722005208333336,25.428565389609744L40.795572916666664,25.428565389609744L41.869140625,25.428565389609744L42.94270833333333,25.428565389609744L44.016276041666664,25.428565389609744L45.08984375,25.428565389609744L46.163411458333336,25.428565389609744L47.236979166666664,25.428565389609744L48.310546875,25.428565389609744L49.384114583333336,25.428565389609744L50.457682291666664,25.428565389609744L51.53125,25.428565389609744L52.604817708333336,25.428565389609744L53.67838541666667,25.428565389609744L54.751953125,25.428565389609744L55.825520833333336,25.428565389609744L56.899088541666664,25.428565389609744L57.97265625,25.428565389609744L59.04622395833333,25.428565389609744L60.119791666666664,25.428565389609744L61.193359375,25.428565389609744L62.266927083333336,25.428565389609744L63.340494791666664,25.428565389609744L64.4140625,25.428565389609744L65.48763020833333,25.428565389609744L66.56119791666667,25.428565389609744L67.634765625,25.428565389609744L68.70833333333333,25.428565389609744L69.78190104166666,25.428565389609744L70.85546875,25.428565389609744L71.92903645833333,25.428565389609744L73.00260416666667,25.428565389609744L74.076171875,25.428565389609744L75.14973958333334,25.428565389609744L76.22330729166667,25.428565389609744L77.296875,25.428565389609744L78.37044270833333,25.428565389609744L79.44401041666667,25.428565389609744L80.517578125,25.428565389609744L81.59114583333333,25.428565389609744L82.66471354166667,25.428565389609744L83.73828125,25.428565389609744L84.81184895833333,25.428565389609744L85.88541666666666,25.428565389609744L86.958984375,25.428565389609744L88.03255208333333,25.428565389609744L89.10611979166667,25.428565389609744L90.1796875,25.428565389609744L91.25325520833334,25.428565389609744L92.32682291666667,25.428565389609744L93.400390625,25.428565389609744L94.47395833333333,25.428565389609744L95.54752604166667,25.428565389609744L96.62109375,120.78571277597386L97.69466145833333,120.78571277597386L98.76822916666667,120.78571277597386L99.841796875,120.78571277597386L100.91536458333333,120.78571277597386L101.98893229166666,120.78571277597386L103.0625,120.78571277597386L104.13606770833333,120.78571277597386L105.20963541666667,120.78571277597386L106.283203125,120.78571277597386L107.35677083333334,120.78571277597386L108.43033854166667,120.78571277597386L109.50390625,120.78571277597386L110.57747395833333,120.78571277597386L111.65104166666667,120.78571277597386L112.724609375,120.78571277597386L113.79817708333333,120.78571277597386L114.87174479166667,120.78571277597386L115.9453125,120.78571277597386L117.01888020833333,120.78571277597386L118.09244791666666,120.78571277597386L119.166015625,120.78571277597386L120.23958333333333,120.78571277597386L121.31315104166667,120.78571277597386L122.38671875,120.78571277597386L123.46028645833334,120.78571277597386L124.53385416666667,120.78571277597386L125.607421875,120.78571277597386L126.68098958333333,120.78571277597386L127.75455729166667,120.78571277597386L128.828125,120.78571277597386L129.90169270833334,120.78571277597386L130.97526041666666,120.78571277597386L132.048828125,120.78571277597386L133.12239583333334,120.78571277597386L134.19596354166669,120.78571277597386L135.26953125,120.78571277597386L136.34309895833334,120.78571277597386L137.41666666666666,120.78571277597386L138.490234375,120.78571277597386L139.56380208333331,120.78571277597386L140.63736979166666,120.78571277597386L141.7109375,120.78571277597386L142.78450520833334,120.78571277597386L143.85807291666666,120.78571277597386L144.931640625,120.78571277597386L146.00520833333334,120.78571277597386L147.07877604166666,120.78571277597386L148.15234375,120.78571277597386L149.22591145833334,120.78571277597386L150.29947916666669,120.78571277597386L151.373046875,120.78571277597386L152.44661458333334,120.78571277597386L153.52018229166666,120.78571277597386L154.59375,120.78571277597386L155.66731770833331,120.78571277597386L156.74088541666666,120.78571277597386L157.814453125,120.78571277597386L158.88802083333334,120.78571277597386L159.96158854166666,120.78571277597386L161.03515625,120.78571277597386L162.10872395833334,120.78571277597386L163.18229166666666,120.78571277597386L164.255859375,120.78571277597386L165.32942708333334,120.78571277597386L166.40299479166669,120.78571277597386L167.4765625,120.78571277597386L168.55013020833334,120.78571277597386L169.62369791666666,120.78571277597386L170.697265625,120.78571277597386L171.77083333333331,144.6249996225649L172.84440104166666,144.6249996225649L173.91796875,144.6249996225649L174.99153645833334,144.6249996225649L176.06510416666666,144.6249996225649L177.138671875,144.6249996225649L178.21223958333334,144.6249996225649L179.28580729166666,144.6249996225649L180.359375,144.6249996225649L181.43294270833334,144.6249996225649L182.50651041666669,144.6249996225649L183.580078125,144.6249996225649L184.65364583333334,144.6249996225649L185.72721354166666,144.6249996225649L186.80078125,144.6249996225649L187.87434895833331,144.6249996225649L188.94791666666666,144.6249996225649L190.021484375,144.6249996225649L191.09505208333334,144.6249996225649L192.16861979166666,144.6249996225649L193.2421875,144.6249996225649L194.31575520833334,144.6249996225649L195.38932291666666,144.6249996225649L196.462890625,144.6249996225649L197.53645833333334,144.6249996225649L198.61002604166669,144.6249996225649L199.68359375,144.6249996225649L200.75716145833334,144.6249996225649L201.83072916666666,144.6249996225649L202.904296875,144.6249996225649L203.97786458333331,144.6249996225649L205.05143229166666,144.6249996225649L206.125,144.6249996225649L207.19856770833334,144.6249996225649L208.27213541666666,144.6249996225649L209.345703125,144.6249996225649L210.41927083333334,144.6249996225649L211.49283854166666,144.6249996225649L212.56640625,144.6249996225649L213.63997395833334,144.6249996225649L214.71354166666669,144.6249996225649L215.787109375,144.6249996225649L216.86067708333334,144.6249996225649L217.93424479166666,144.6249996225649L219.0078125,144.6249996225649L220.08138020833331,144.6249996225649L221.15494791666666,144.6249996225649L222.228515625,144.6249996225649L223.30208333333334,144.6249996225649L224.37565104166666,144.6249996225649L225.44921875,144.6249996225649L226.52278645833334,144.6249996225649L227.59635416666666,144.6249996225649L228.669921875,144.6249996225649L229.74348958333334,144.6249996225649L230.81705729166669,144.6249996225649L231.890625,144.6249996225649L232.96419270833334,144.6249996225649L234.03776041666666,144.6249996225649L235.111328125,144.6249996225649" style="fill: none;" fill="none"></path></g></g></g></g></g><g><g opacity="0.181503"><span fill="rgb(0, 0, 0)" stroke="none" stroke-width="1px">Alt + Scroll to Zoom</span></g></g></g><g transform="translate(72, 178)" clip-path="url(#clip_1)"><clipPath id="clip_1"><rect width="257" height="22"></rect></clipPath><g><g><line x1="0" y1="0" x2="0" y2="5" style="visibility: inherit;" fill="rgb(0, 0, 0)" stroke="rgb(204, 204, 204)" stroke-width="1px"></line><line x1="21.471354166666664" y1="0" x2="21.471354166666664" y2="5" style="visibility: inherit;" fill="rgb(0, 0, 0)" stroke="rgb(204, 204, 204)" stroke-width="1px"></line><line x1="42.94270833333333" y1="0" x2="42.94270833333333" y2="5" style="visibility: inherit;" fill="rgb(0, 0, 0)" stroke="rgb(204, 204, 204)" stroke-width="1px"></line><line x1="64.4140625" y1="0" x2="64.4140625" y2="5" style="visibility: inherit;" fill="rgb(0, 0, 0)" stroke="rgb(204, 204, 204)" stroke-width="1px"></line><line x1="85.88541666666666" y1="0" x2="85.88541666666666" y2="5" style="visibility: inherit;" fill="rgb(0, 0, 0)" stroke="rgb(204, 204, 204)" stroke-width="1px"></line><line x1="107.35677083333334" y1="0" x2="107.35677083333334" y2="5" style="visibility: inherit;" fill="rgb(0, 0, 0)" stroke="rgb(204, 204, 204)" stroke-width="1px"></line><line x1="128.828125" y1="0" x2="128.828125" y2="5" style="visibility: inherit;" fill="rgb(0, 0, 0)" stroke="rgb(204, 204, 204)" stroke-width="1px"></line><line x1="150.29947916666669" y1="0" x2="150.29947916666669" y2="5" style="visibility: inherit;" fill="rgb(0, 0, 0)" stroke="rgb(204, 204, 204)" stroke-width="1px"></line><line x1="171.77083333333331" y1="0" x2="171.77083333333331" y2="5" style="visibility: inherit;" fill="rgb(0, 0, 0)" stroke="rgb(204, 204, 204)" stroke-width="1px"></line><line x1="193.2421875" y1="0" x2="193.2421875" y2="5" style="visibility: inherit;" fill="rgb(0, 0, 0)" stroke="rgb(204, 204, 204)" stroke-width="1px"></line><line x1="214.71354166666669" y1="0" x2="214.71354166666669" y2="5" style="visibility: inherit;" fill="rgb(0, 0, 0)" stroke="rgb(204, 204, 204)" stroke-width="1px"></line><line x1="236.18489583333331" y1="0" x2="236.18489583333331" y2="5" style="visibility: inherit;" fill="rgb(0, 0, 0)" stroke="rgb(204, 204, 204)" stroke-width="1px"></line><line x1="257.65625" y1="0" x2="257.65625" y2="5" style="visibility: inherit;" fill="rgb(0, 0, 0)" stroke="rgb(204, 204, 204)" stroke-width="1px"></line></g><g transform="translate(0, 8)"><text x="0" y="0" dx="0em" dy="0.95em" style="text-anchor: middle; visibility: hidden; font-family: Roboto, sans-serif; font-size: 12px; font-weight: 200;" fill="rgb(50, 49, 63)" stroke="none" stroke-width="1px">-1k</text><text x="21.471354166666664" y="0" dx="0em" dy="0.95em" style="text-anchor: middle; visibility: inherit; font-family: Roboto, sans-serif; font-size: 12px; font-weight: 200;" fill="rgb(50, 49, 63)" stroke="none" stroke-width="1px">0</text><text x="42.94270833333333" y="0" dx="0em" dy="0.95em" style="text-anchor: middle; visibility: hidden; font-family: Roboto, sans-serif; font-size: 12px; font-weight: 200;" fill="rgb(50, 49, 63)" stroke="none" stroke-width="1px">1k</text><text x="64.4140625" y="0" dx="0em" dy="0.95em" style="text-anchor: middle; visibility: inherit; font-family: Roboto, sans-serif; font-size: 12px; font-weight: 200;" fill="rgb(50, 49, 63)" stroke="none" stroke-width="1px">2k</text><text x="85.88541666666666" y="0" dx="0em" dy="0.95em" style="text-anchor: middle; visibility: hidden; font-family: Roboto, sans-serif; font-size: 12px; font-weight: 200;" fill="rgb(50, 49, 63)" stroke="none" stroke-width="1px">3k</text><text x="107.35677083333334" y="0" dx="0em" dy="0.95em" style="text-anchor: middle; visibility: inherit; font-family: Roboto, sans-serif; font-size: 12px; font-weight: 200;" fill="rgb(50, 49, 63)" stroke="none" stroke-width="1px">4k</text><text x="128.828125" y="0" dx="0em" dy="0.95em" style="text-anchor: middle; visibility: hidden; font-family: Roboto, sans-serif; font-size: 12px; font-weight: 200;" fill="rgb(50, 49, 63)" stroke="none" stroke-width="1px">5k</text><text x="150.29947916666669" y="0" dx="0em" dy="0.95em" style="text-anchor: middle; visibility: inherit; font-family: Roboto, sans-serif; font-size: 12px; font-weight: 200;" fill="rgb(50, 49, 63)" stroke="none" stroke-width="1px">6k</text><text x="171.77083333333331" y="0" dx="0em" dy="0.95em" style="text-anchor: middle; visibility: hidden; font-family: Roboto, sans-serif; font-size: 12px; font-weight: 200;" fill="rgb(50, 49, 63)" stroke="none" stroke-width="1px">7k</text><text x="193.2421875" y="0" dx="0em" dy="0.95em" style="text-anchor: middle; visibility: inherit; font-family: Roboto, sans-serif; font-size: 12px; font-weight: 200;" fill="rgb(50, 49, 63)" stroke="none" stroke-width="1px">8k</text><text x="214.71354166666669" y="0" dx="0em" dy="0.95em" style="text-anchor: middle; visibility: hidden; font-family: Roboto, sans-serif; font-size: 12px; font-weight: 200;" fill="rgb(50, 49, 63)" stroke="none" stroke-width="1px">9k</text><text x="236.18489583333331" y="0" dx="0em" dy="0.95em" style="text-anchor: middle; visibility: inherit; font-family: Roboto, sans-serif; font-size: 12px; font-weight: 200;" fill="rgb(50, 49, 63)" stroke="none" stroke-width="1px">10k</text><text x="257.65625" y="0" dx="0em" dy="0.95em" style="text-anchor: middle; visibility: hidden; font-family: Roboto, sans-serif; font-size: 12px; font-weight: 200;" fill="rgb(50, 49, 63)" stroke="none" stroke-width="1px">11k</text></g><line x1="0" y1="0" x2="257.65625" y2="0" fill="rgb(0, 0, 0)" stroke="rgb(204, 204, 204)" stroke-width="1px"></line></g></g></g></g></svg>